%TF.GenerationSoftware,KiCad,Pcbnew,(7.0.0)*%
%TF.CreationDate,2023-10-03T20:22:14+02:00*%
%TF.ProjectId,qorthoz,716f7274-686f-47a2-9e6b-696361645f70,rev?*%
%TF.SameCoordinates,Original*%
%TF.FileFunction,Legend,Top*%
%TF.FilePolarity,Positive*%
%FSLAX46Y46*%
G04 Gerber Fmt 4.6, Leading zero omitted, Abs format (unit mm)*
G04 Created by KiCad (PCBNEW (7.0.0)) date 2023-10-03 20:22:14*
%MOMM*%
%LPD*%
G01*
G04 APERTURE LIST*
G04 APERTURE END LIST*
%TO.C,G\u002A\u002A\u002A*%
G36*
X132554363Y-46157822D02*
G01*
X133214036Y-46498796D01*
X133330835Y-46604464D01*
X133801364Y-47221725D01*
X133657356Y-47506679D01*
X133484155Y-47524384D01*
X133136804Y-47252147D01*
X133126408Y-47166637D01*
X132826778Y-46875974D01*
X132410915Y-46808891D01*
X131829589Y-46659075D01*
X131695422Y-46451144D01*
X131956158Y-46133313D01*
X132554363Y-46157822D01*
G37*
G36*
X137857233Y-40443066D02*
G01*
X138134859Y-40727200D01*
X137843377Y-41040452D01*
X137572686Y-41084947D01*
X136764526Y-41387649D01*
X136146086Y-42093669D01*
X135988380Y-42669253D01*
X135802892Y-43161506D01*
X135630634Y-43231426D01*
X135364461Y-42924511D01*
X135272887Y-42311506D01*
X135464205Y-41403885D01*
X135783954Y-40880520D01*
X136400118Y-40533900D01*
X137185122Y-40381957D01*
X137857233Y-40443066D01*
G37*
G36*
X120019244Y-49076361D02*
G01*
X120247535Y-49313116D01*
X120539017Y-49626368D01*
X120809708Y-49670862D01*
X121436408Y-49867797D01*
X121999491Y-50315857D01*
X122278462Y-50800923D01*
X122208752Y-51029447D01*
X121874410Y-51002034D01*
X121778605Y-50833538D01*
X121329094Y-50539928D01*
X120353719Y-50394321D01*
X120010802Y-50386355D01*
X118984422Y-50456337D01*
X118212490Y-50759441D01*
X117403713Y-51435405D01*
X117027817Y-51817341D01*
X116093662Y-52747173D01*
X115538227Y-53174699D01*
X115282358Y-53147411D01*
X115239084Y-52890581D01*
X115511321Y-52543230D01*
X115596831Y-52532834D01*
X115912275Y-52242255D01*
X115954577Y-51984290D01*
X116237290Y-51281177D01*
X116944352Y-50439484D01*
X117864149Y-49648472D01*
X118785065Y-49097402D01*
X119341244Y-48955369D01*
X120019244Y-49076361D01*
G37*
G36*
X134158815Y-66205016D02*
G01*
X134513173Y-66509890D01*
X134557394Y-66842693D01*
X134354417Y-67398057D01*
X133644291Y-67558180D01*
X133637475Y-67558186D01*
X132729853Y-67749504D01*
X132206489Y-68069253D01*
X131859869Y-68685417D01*
X131707926Y-69470421D01*
X131769035Y-70142532D01*
X132053169Y-70420158D01*
X132343832Y-70719788D01*
X132410915Y-71135651D01*
X132653545Y-71714637D01*
X133242774Y-71815560D01*
X133970616Y-71412421D01*
X134046328Y-71340078D01*
X134477687Y-70647099D01*
X134557394Y-70266838D01*
X134856443Y-69801961D01*
X135272887Y-69704665D01*
X135833121Y-69965387D01*
X135992219Y-70621275D01*
X135761593Y-71482915D01*
X135152652Y-72360889D01*
X135110275Y-72404025D01*
X134122189Y-73033526D01*
X132970128Y-73272819D01*
X131923672Y-73096801D01*
X131427113Y-72747002D01*
X131040039Y-72031072D01*
X130979930Y-71687370D01*
X130791373Y-71201681D01*
X130622183Y-71135651D01*
X130409728Y-70815706D01*
X130281545Y-70005369D01*
X130264437Y-69509531D01*
X130533532Y-67929757D01*
X131301507Y-66807751D01*
X132509393Y-66209454D01*
X133289020Y-66127200D01*
X134158815Y-66205016D01*
G37*
G36*
X141600065Y-62804573D02*
G01*
X141712324Y-63186253D01*
X141442406Y-63877909D01*
X140996831Y-64338468D01*
X140561094Y-64903055D01*
X140311610Y-65678428D01*
X140285650Y-66403694D01*
X140520485Y-66817960D01*
X140639084Y-66842693D01*
X140843158Y-67164441D01*
X140972689Y-67987097D01*
X140996831Y-68631426D01*
X140959161Y-69704315D01*
X140799269Y-70239405D01*
X140446831Y-70412504D01*
X140281338Y-70420158D01*
X139757619Y-70251500D01*
X139573226Y-69623963D01*
X139565845Y-69346919D01*
X139462222Y-68593362D01*
X139212549Y-68273762D01*
X139208099Y-68273679D01*
X138984077Y-67956304D01*
X138859474Y-67163462D01*
X138850352Y-66842693D01*
X138790352Y-65906490D01*
X138547840Y-65492725D01*
X138134859Y-65411707D01*
X137553533Y-65561523D01*
X137419366Y-65769454D01*
X137119736Y-66060117D01*
X136703873Y-66127200D01*
X136124887Y-65884571D01*
X136023964Y-65295342D01*
X136427103Y-64567500D01*
X136499447Y-64491788D01*
X137241765Y-64093842D01*
X137930433Y-63980722D01*
X138614878Y-63861366D01*
X138850352Y-63622975D01*
X139149982Y-63332312D01*
X139565845Y-63265229D01*
X140147171Y-63115414D01*
X140281338Y-62907482D01*
X140580968Y-62616819D01*
X140996831Y-62549736D01*
X141600065Y-62804573D01*
G37*
G36*
X98782746Y-55037060D02*
G01*
X99498239Y-55037060D01*
X99529338Y-56812653D01*
X99617092Y-58112018D01*
X99753190Y-58843729D01*
X99855986Y-58972271D01*
X100122159Y-59279186D01*
X100213732Y-59892190D01*
X100458777Y-60948581D01*
X101225706Y-61582379D01*
X102562218Y-61828439D01*
X102871278Y-61834243D01*
X103840184Y-61904255D01*
X104426665Y-62081681D01*
X104506690Y-62191989D01*
X104806320Y-62482652D01*
X105222183Y-62549736D01*
X105803509Y-62699551D01*
X105937676Y-62907482D01*
X106233510Y-63209296D01*
X106574193Y-63265229D01*
X107265849Y-63535147D01*
X107726408Y-63980722D01*
X108369286Y-64539511D01*
X108878624Y-64696215D01*
X109415623Y-64862485D01*
X109515141Y-65053961D01*
X109814771Y-65344624D01*
X110230634Y-65411707D01*
X110811960Y-65561523D01*
X110946127Y-65769454D01*
X111218363Y-66116805D01*
X111303873Y-66127200D01*
X111651224Y-65854964D01*
X111661620Y-65769454D01*
X112005326Y-65612418D01*
X112981901Y-65496231D01*
X114509531Y-65427713D01*
X115954577Y-65411707D01*
X117839015Y-65383065D01*
X119233248Y-65301684D01*
X120055463Y-65174381D01*
X120247535Y-65053961D01*
X120569282Y-64849887D01*
X121391939Y-64720357D01*
X122036268Y-64696215D01*
X123056638Y-64631865D01*
X123704288Y-64467334D01*
X123825000Y-64338468D01*
X124142375Y-64114446D01*
X124935217Y-63989844D01*
X125255986Y-63980722D01*
X126152073Y-63901378D01*
X126650482Y-63703167D01*
X126686972Y-63622975D01*
X127008719Y-63418901D01*
X127831376Y-63289371D01*
X128475704Y-63265229D01*
X129496074Y-63200879D01*
X130143725Y-63036348D01*
X130264437Y-62907482D01*
X130575307Y-62656297D01*
X131324324Y-62549763D01*
X131337676Y-62549736D01*
X132091232Y-62446112D01*
X132410833Y-62196440D01*
X132410915Y-62191989D01*
X132710546Y-61901326D01*
X133126408Y-61834243D01*
X133707735Y-61684428D01*
X133841901Y-61476496D01*
X134141532Y-61185833D01*
X134557394Y-61118750D01*
X135138721Y-60968935D01*
X135272887Y-60761003D01*
X135572517Y-60470340D01*
X135988380Y-60403257D01*
X136569706Y-60253442D01*
X136703873Y-60045510D01*
X136994283Y-59729659D01*
X137249907Y-59687764D01*
X137813983Y-59433311D01*
X138636140Y-58788014D01*
X139539285Y-57928966D01*
X140346325Y-57033262D01*
X140880166Y-56277994D01*
X140996831Y-55940840D01*
X141187099Y-55458751D01*
X141354577Y-55394806D01*
X141525995Y-55057089D01*
X141648272Y-54122236D01*
X141708361Y-52707693D01*
X141712324Y-52175088D01*
X141691892Y-50757155D01*
X141637162Y-49657835D01*
X141557985Y-49036756D01*
X141513639Y-48955369D01*
X141189378Y-49193365D01*
X140497944Y-49827542D01*
X139567925Y-50738182D01*
X139208099Y-51101848D01*
X138175937Y-52089443D01*
X137274888Y-52837173D01*
X136657670Y-53221954D01*
X136544812Y-53248327D01*
X136056155Y-53435488D01*
X135988380Y-53606074D01*
X135677510Y-53857259D01*
X134928493Y-53963793D01*
X134915141Y-53963820D01*
X134161584Y-54067444D01*
X133841984Y-54317116D01*
X133841901Y-54321567D01*
X133504185Y-54492984D01*
X132569332Y-54615262D01*
X131154788Y-54675350D01*
X130622183Y-54679313D01*
X129092458Y-54691268D01*
X128141913Y-54747309D01*
X127634368Y-54877698D01*
X127433645Y-55112696D01*
X127402465Y-55394806D01*
X127252650Y-55976132D01*
X127044718Y-56110299D01*
X126777553Y-55803657D01*
X126686972Y-55199672D01*
X126439403Y-54319912D01*
X125840485Y-53443144D01*
X125808867Y-53410939D01*
X124942516Y-52801326D01*
X124053489Y-52533400D01*
X124020134Y-52532834D01*
X123340078Y-52412368D01*
X123109507Y-52175088D01*
X123239651Y-52083225D01*
X126015191Y-52083225D01*
X126033082Y-52693553D01*
X126367304Y-53367346D01*
X126418662Y-53428692D01*
X126927303Y-53644258D01*
X127912548Y-53809789D01*
X129195059Y-53920999D01*
X130595500Y-53973603D01*
X131934533Y-53963316D01*
X133032822Y-53885852D01*
X133711029Y-53736926D01*
X133841901Y-53606074D01*
X134152772Y-53354888D01*
X134901788Y-53248355D01*
X134915141Y-53248327D01*
X135668697Y-53144704D01*
X135988298Y-52895032D01*
X135988380Y-52890581D01*
X136278599Y-52574276D01*
X136531625Y-52532834D01*
X137023210Y-52286856D01*
X137838075Y-51643637D01*
X138831945Y-50745254D01*
X139860543Y-49733783D01*
X140779594Y-48751300D01*
X141444824Y-47939880D01*
X141711957Y-47441601D01*
X141712324Y-47431111D01*
X141976733Y-46880837D01*
X142427817Y-46451144D01*
X142989280Y-45689993D01*
X143143310Y-44583436D01*
X143094209Y-43699046D01*
X142835658Y-43318663D01*
X142200785Y-43232071D01*
X142070070Y-43231426D01*
X141316514Y-43335049D01*
X140996913Y-43584721D01*
X140996831Y-43589172D01*
X140697201Y-43879835D01*
X140281338Y-43946919D01*
X139700012Y-44096734D01*
X139565845Y-44304665D01*
X139234958Y-44488181D01*
X138348117Y-44614988D01*
X137064050Y-44662412D01*
X137061620Y-44662412D01*
X135777012Y-44615142D01*
X134889361Y-44488451D01*
X134557395Y-44305012D01*
X134557394Y-44304665D01*
X134257764Y-44014002D01*
X133841901Y-43946919D01*
X133260575Y-43797104D01*
X133126408Y-43589172D01*
X132817087Y-43343704D01*
X132050996Y-43238456D01*
X131070944Y-43263586D01*
X130119742Y-43409249D01*
X129440197Y-43665601D01*
X129344517Y-43742492D01*
X128997161Y-44432415D01*
X128835022Y-45429354D01*
X128833451Y-45531225D01*
X128745268Y-46368927D01*
X128527891Y-46795233D01*
X128475704Y-46808891D01*
X128224519Y-47119761D01*
X128117985Y-47868778D01*
X128117958Y-47882130D01*
X128014334Y-48635686D01*
X127764662Y-48955287D01*
X127760211Y-48955369D01*
X127469548Y-49255000D01*
X127402465Y-49670862D01*
X127252650Y-50252189D01*
X127044718Y-50386355D01*
X126754055Y-50685986D01*
X126686972Y-51101848D01*
X126537157Y-51683175D01*
X126329225Y-51817341D01*
X126015191Y-52083225D01*
X123239651Y-52083225D01*
X123426882Y-51951066D01*
X124219724Y-51826464D01*
X124540493Y-51817341D01*
X125476696Y-51757341D01*
X125890461Y-51514829D01*
X125971479Y-51101848D01*
X126121294Y-50520522D01*
X126329225Y-50386355D01*
X126619888Y-50086725D01*
X126686972Y-49670862D01*
X126836787Y-49089536D01*
X127044718Y-48955369D01*
X127295904Y-48644499D01*
X127402437Y-47895482D01*
X127402465Y-47882130D01*
X127506088Y-47128574D01*
X127755760Y-46808973D01*
X127760211Y-46808891D01*
X127995455Y-46494114D01*
X128114407Y-45718865D01*
X128117958Y-45540517D01*
X128418882Y-44127834D01*
X129277692Y-43124502D01*
X130628447Y-42589487D01*
X131500288Y-42515933D01*
X132465994Y-42586321D01*
X133048644Y-42764595D01*
X133126408Y-42873679D01*
X133426039Y-43164342D01*
X133841901Y-43231426D01*
X134423228Y-43381241D01*
X134557394Y-43589172D01*
X134888281Y-43772688D01*
X135775122Y-43899495D01*
X137059190Y-43946919D01*
X137061620Y-43946919D01*
X138346227Y-43899649D01*
X139233878Y-43772958D01*
X139565844Y-43589519D01*
X139565845Y-43589172D01*
X139865475Y-43298509D01*
X140281338Y-43231426D01*
X140862664Y-43081611D01*
X140996831Y-42873679D01*
X140724595Y-42526329D01*
X140639084Y-42515933D01*
X140348421Y-42216303D01*
X140281338Y-41800440D01*
X140131523Y-41219114D01*
X139923591Y-41084947D01*
X139632928Y-40785317D01*
X139565845Y-40369454D01*
X139416030Y-39788128D01*
X139208099Y-39653961D01*
X138891794Y-39363742D01*
X138850352Y-39110716D01*
X138600665Y-38601190D01*
X137947587Y-37774851D01*
X137035091Y-36775673D01*
X136007148Y-35747628D01*
X135007732Y-34834689D01*
X134180815Y-34180828D01*
X133670371Y-33930019D01*
X133669653Y-33930017D01*
X133189339Y-33738898D01*
X133126408Y-33572271D01*
X132815538Y-33321085D01*
X132066521Y-33214552D01*
X132053169Y-33214524D01*
X131299613Y-33110901D01*
X130980012Y-32861229D01*
X130979930Y-32856778D01*
X130669059Y-32605592D01*
X129920043Y-32499059D01*
X129906690Y-32499031D01*
X129153134Y-32395408D01*
X128833533Y-32145736D01*
X128833451Y-32141285D01*
X128488381Y-31988287D01*
X127502357Y-31873951D01*
X125949157Y-31803954D01*
X124182746Y-31783538D01*
X122193768Y-31810082D01*
X120707406Y-31885930D01*
X119797439Y-32005407D01*
X119532042Y-32141285D01*
X119210295Y-32345359D01*
X118387638Y-32474889D01*
X117743310Y-32499031D01*
X116722940Y-32563381D01*
X116075289Y-32727912D01*
X115954577Y-32856778D01*
X115654947Y-33147441D01*
X115239084Y-33214524D01*
X114657758Y-33364339D01*
X114523591Y-33572271D01*
X114223961Y-33862934D01*
X113808099Y-33930017D01*
X113226772Y-34079832D01*
X113092606Y-34287764D01*
X112792975Y-34578427D01*
X112377113Y-34645510D01*
X111795786Y-34795325D01*
X111661620Y-35003257D01*
X111361989Y-35293920D01*
X110946127Y-35361003D01*
X110364800Y-35510818D01*
X110230634Y-35718750D01*
X109940555Y-36035386D01*
X109689428Y-36076496D01*
X109225251Y-36323765D01*
X108401430Y-36987532D01*
X107335025Y-37950738D01*
X106143095Y-39096323D01*
X104942699Y-40307227D01*
X103850898Y-41466392D01*
X102984751Y-42456756D01*
X102461317Y-43161262D01*
X102360211Y-43405713D01*
X102168464Y-43884726D01*
X102002465Y-43946919D01*
X101711802Y-44246549D01*
X101644718Y-44662412D01*
X101494903Y-45243738D01*
X101286972Y-45377905D01*
X101035786Y-45688775D01*
X100929253Y-46437792D01*
X100929225Y-46451144D01*
X100825602Y-47204701D01*
X100575930Y-47524301D01*
X100571479Y-47524384D01*
X100367405Y-47846131D01*
X100237875Y-48668787D01*
X100213732Y-49313116D01*
X100149383Y-50333486D01*
X99984852Y-50981137D01*
X99855986Y-51101848D01*
X99694568Y-51443930D01*
X99576444Y-52409224D01*
X99509925Y-53906306D01*
X99498239Y-55037060D01*
X98782746Y-55037060D01*
X98813845Y-53261466D01*
X98901599Y-51962101D01*
X99037697Y-51230390D01*
X99140493Y-51101848D01*
X99344567Y-50780101D01*
X99474097Y-49957444D01*
X99498239Y-49313116D01*
X99562589Y-48292746D01*
X99727120Y-47645095D01*
X99855986Y-47524384D01*
X100107171Y-47213513D01*
X100213705Y-46464497D01*
X100213732Y-46451144D01*
X100317356Y-45697588D01*
X100567028Y-45377987D01*
X100571479Y-45377905D01*
X100862142Y-45078274D01*
X100929225Y-44662412D01*
X101079040Y-44081085D01*
X101286972Y-43946919D01*
X101603678Y-43656870D01*
X101644718Y-43406139D01*
X101891624Y-42952411D01*
X102558375Y-42129849D01*
X103534027Y-41049401D01*
X104707631Y-39822013D01*
X105968241Y-38558632D01*
X107204911Y-37370205D01*
X108306693Y-36367678D01*
X109162641Y-35661998D01*
X109661808Y-35364112D01*
X109689854Y-35361003D01*
X110168596Y-35169125D01*
X110230634Y-35003257D01*
X110530264Y-34712594D01*
X110946127Y-34645510D01*
X111527453Y-34495695D01*
X111661620Y-34287764D01*
X111961250Y-33997101D01*
X112377113Y-33930017D01*
X112958439Y-33780202D01*
X113092606Y-33572271D01*
X113392236Y-33281608D01*
X113808099Y-33214524D01*
X114389425Y-33064709D01*
X114523591Y-32856778D01*
X114823222Y-32566115D01*
X115239084Y-32499031D01*
X115820411Y-32349216D01*
X115954577Y-32141285D01*
X116276325Y-31937211D01*
X117098981Y-31807681D01*
X117743310Y-31783538D01*
X118763680Y-31719189D01*
X119411330Y-31554658D01*
X119532042Y-31425792D01*
X119877112Y-31272794D01*
X120863136Y-31158458D01*
X122416336Y-31088461D01*
X124182746Y-31068046D01*
X126171725Y-31094589D01*
X127658087Y-31170437D01*
X128568053Y-31289914D01*
X128833451Y-31425792D01*
X129144321Y-31676977D01*
X129893338Y-31783511D01*
X129906690Y-31783538D01*
X130660246Y-31887162D01*
X130979847Y-32136834D01*
X130979930Y-32141285D01*
X131290800Y-32392470D01*
X132039817Y-32499004D01*
X132053169Y-32499031D01*
X132806725Y-32602655D01*
X133126326Y-32852327D01*
X133126408Y-32856778D01*
X133416568Y-33173221D01*
X133668798Y-33214524D01*
X134160074Y-33463072D01*
X134985999Y-34120004D01*
X136013505Y-35052251D01*
X137109524Y-36126745D01*
X138140987Y-37210418D01*
X138974827Y-38170201D01*
X139477974Y-38873027D01*
X139565845Y-39111571D01*
X139757227Y-39591340D01*
X139923591Y-39653961D01*
X140214255Y-39953591D01*
X140281338Y-40369454D01*
X140431153Y-40950780D01*
X140639084Y-41084947D01*
X140929748Y-41384577D01*
X140996831Y-41800440D01*
X141199809Y-42355803D01*
X141909934Y-42515927D01*
X141916750Y-42515933D01*
X142824372Y-42707251D01*
X143347736Y-43026999D01*
X143782116Y-43886156D01*
X143837731Y-44984031D01*
X143534193Y-45992127D01*
X143143310Y-46451144D01*
X142509785Y-47191132D01*
X142589780Y-47984055D01*
X142963594Y-48469014D01*
X143298089Y-48695287D01*
X143690052Y-48620685D01*
X144276365Y-48169239D01*
X145193912Y-47264980D01*
X145265720Y-47191348D01*
X146502089Y-46053959D01*
X147488627Y-45501456D01*
X148346050Y-45506661D01*
X149195075Y-46042396D01*
X149420134Y-46256010D01*
X149773294Y-46642309D01*
X150016379Y-47060276D01*
X150169900Y-47643616D01*
X150254369Y-48526036D01*
X150290299Y-49841243D01*
X150298201Y-51722944D01*
X150298239Y-51979953D01*
X150272716Y-54024304D01*
X150199588Y-55559834D01*
X150084019Y-56516611D01*
X149940493Y-56825792D01*
X149716471Y-57143167D01*
X149591869Y-57936009D01*
X149582746Y-58256778D01*
X149503403Y-59152865D01*
X149305192Y-59651274D01*
X149225000Y-59687764D01*
X149047835Y-60022480D01*
X148923338Y-60936296D01*
X148868446Y-62293709D01*
X148867253Y-62549736D01*
X148825414Y-63967055D01*
X148711187Y-64963033D01*
X148541510Y-65402168D01*
X148509507Y-65411707D01*
X148305433Y-65733455D01*
X148175903Y-66556111D01*
X148151761Y-67200440D01*
X148087411Y-68220810D01*
X147922880Y-68868461D01*
X147794014Y-68989172D01*
X147569992Y-69306547D01*
X147445390Y-70099389D01*
X147436268Y-70420158D01*
X147356924Y-71316245D01*
X147158713Y-71814655D01*
X147078521Y-71851144D01*
X146766826Y-72143252D01*
X146720775Y-72423106D01*
X146474996Y-73015918D01*
X145863410Y-73784261D01*
X145647535Y-73997623D01*
X144965982Y-74765272D01*
X144596259Y-75436577D01*
X144574296Y-75572140D01*
X144391590Y-76070475D01*
X144216549Y-76144102D01*
X143885121Y-76393866D01*
X143913982Y-76971836D01*
X144251735Y-77621032D01*
X144574296Y-77932834D01*
X145132714Y-78678813D01*
X145289789Y-79363820D01*
X145021275Y-80271706D01*
X144574296Y-80794806D01*
X144010776Y-81521656D01*
X143858803Y-82142156D01*
X143539874Y-83160278D01*
X142730579Y-84054173D01*
X141652158Y-84625115D01*
X140977750Y-84730017D01*
X139835112Y-85008717D01*
X138850352Y-85803257D01*
X138046419Y-86510564D01*
X137181037Y-86819449D01*
X136202595Y-86876496D01*
X135230328Y-86806876D01*
X134639827Y-86630334D01*
X134557394Y-86518750D01*
X134257764Y-86228087D01*
X133841901Y-86161003D01*
X133260575Y-86011188D01*
X133126408Y-85803257D01*
X132826778Y-85512594D01*
X132410915Y-85445510D01*
X131829589Y-85595325D01*
X131695422Y-85803257D01*
X131360706Y-85980422D01*
X130446890Y-86104919D01*
X129089477Y-86159811D01*
X128833451Y-86161003D01*
X127369008Y-86185573D01*
X126490044Y-86275621D01*
X126067717Y-86455654D01*
X125971479Y-86705400D01*
X125731829Y-87205112D01*
X125097838Y-88031558D01*
X124196942Y-89021903D01*
X124011650Y-89209625D01*
X122051822Y-91169454D01*
X119718693Y-91169454D01*
X118500489Y-91119059D01*
X117666098Y-90985488D01*
X117385563Y-90811707D01*
X117093455Y-90500013D01*
X116813602Y-90453961D01*
X116220790Y-90208182D01*
X115452447Y-89596596D01*
X115239084Y-89380722D01*
X114509432Y-88703230D01*
X113921135Y-88331695D01*
X113808099Y-88307482D01*
X113311175Y-88065042D01*
X112598364Y-87460746D01*
X112377113Y-87234243D01*
X111764138Y-86648731D01*
X111151837Y-86325912D01*
X110299432Y-86188952D01*
X109013863Y-86161003D01*
X107784822Y-86111139D01*
X106941785Y-85978722D01*
X106653169Y-85803257D01*
X106342299Y-85552071D01*
X105593282Y-85445538D01*
X105579930Y-85445510D01*
X104826373Y-85341887D01*
X104506773Y-85092215D01*
X104506690Y-85087764D01*
X104207060Y-84797101D01*
X103791197Y-84730017D01*
X103209871Y-84580202D01*
X103075704Y-84372271D01*
X102776074Y-84081608D01*
X102360211Y-84014524D01*
X101762307Y-83761559D01*
X101644718Y-83299031D01*
X101494903Y-82717705D01*
X101286972Y-82583538D01*
X100999342Y-82295189D01*
X100942762Y-81617961D01*
X101035382Y-81152553D01*
X101644718Y-81152553D01*
X101794533Y-81733879D01*
X102002465Y-81868046D01*
X102315717Y-82159527D01*
X102360211Y-82430219D01*
X102662913Y-83238379D01*
X103368933Y-83856819D01*
X103944517Y-84014524D01*
X104436770Y-84200013D01*
X104506690Y-84372271D01*
X104817560Y-84623456D01*
X105566577Y-84729990D01*
X105579930Y-84730017D01*
X106333486Y-84833641D01*
X106653087Y-85083313D01*
X106653169Y-85087764D01*
X106974916Y-85291838D01*
X107797573Y-85421368D01*
X108441901Y-85445510D01*
X109500787Y-85422062D01*
X110028815Y-85277893D01*
X110210549Y-84902263D01*
X110230634Y-84372271D01*
X110203515Y-84088868D01*
X110946127Y-84088868D01*
X111211150Y-84654588D01*
X111661620Y-85087764D01*
X112216458Y-85666648D01*
X112377113Y-86086659D01*
X112650503Y-86778870D01*
X113264933Y-87385096D01*
X113817887Y-87591989D01*
X114308311Y-87834202D01*
X115017317Y-88438002D01*
X115239084Y-88665229D01*
X116006734Y-89346782D01*
X116678039Y-89716505D01*
X116813602Y-89738468D01*
X117311936Y-89921174D01*
X117385563Y-90096215D01*
X117714248Y-90282974D01*
X118585524Y-90410903D01*
X119720330Y-90453961D01*
X121003624Y-90429921D01*
X121849762Y-90282354D01*
X122537003Y-89898093D01*
X123343610Y-89163968D01*
X123655541Y-88853516D01*
X125255986Y-87253071D01*
X125255986Y-83487319D01*
X125223572Y-81764934D01*
X125132451Y-80511526D01*
X124991807Y-79823750D01*
X124898239Y-79721567D01*
X124607576Y-79421936D01*
X124540493Y-79006074D01*
X124390678Y-78424747D01*
X124182746Y-78290581D01*
X123892083Y-77990951D01*
X123825000Y-77575088D01*
X123572035Y-76977183D01*
X123109507Y-76859595D01*
X122528181Y-76709780D01*
X122394014Y-76501848D01*
X122161867Y-76151753D01*
X121575125Y-76239169D01*
X120798337Y-76709246D01*
X120247535Y-77217341D01*
X119313220Y-78041305D01*
X118576756Y-78234050D01*
X117929852Y-77811046D01*
X117743310Y-77575088D01*
X117116548Y-77066815D01*
X116085460Y-76869323D01*
X115671175Y-76859595D01*
X114454429Y-76964151D01*
X113682915Y-77358732D01*
X113263850Y-78164709D01*
X113104449Y-79503453D01*
X113092606Y-80232633D01*
X113060330Y-81532528D01*
X112941087Y-82259543D01*
X112701248Y-82554298D01*
X112530433Y-82583538D01*
X111755499Y-82866541D01*
X111130323Y-83519099D01*
X110946127Y-84088868D01*
X110203515Y-84088868D01*
X110161862Y-83653570D01*
X109811446Y-83356999D01*
X108966596Y-83299031D01*
X107940198Y-83135000D01*
X106992413Y-82550322D01*
X106462371Y-82058844D01*
X105733689Y-81224784D01*
X105287725Y-80511233D01*
X105222183Y-80270111D01*
X105032675Y-79786430D01*
X104864437Y-79721567D01*
X104517086Y-79993803D01*
X104506690Y-80079313D01*
X104189315Y-80303335D01*
X103396473Y-80427937D01*
X103075704Y-80437060D01*
X102139501Y-80497060D01*
X101725736Y-80739572D01*
X101644718Y-81152553D01*
X101035382Y-81152553D01*
X101098859Y-80833586D01*
X101440292Y-80232633D01*
X102130215Y-79885277D01*
X103127153Y-79723138D01*
X103229024Y-79721567D01*
X104102696Y-79644978D01*
X104460551Y-79344309D01*
X104506690Y-79006074D01*
X104356875Y-78424747D01*
X104148944Y-78290581D01*
X103858280Y-77990951D01*
X103791197Y-77575088D01*
X103641382Y-76993762D01*
X103433451Y-76859595D01*
X103131637Y-76563760D01*
X103075704Y-76223078D01*
X102805786Y-75531421D01*
X102360211Y-75070862D01*
X101805307Y-74490952D01*
X101644718Y-74069473D01*
X101402726Y-73567541D01*
X100780179Y-72793035D01*
X100213732Y-72208891D01*
X99417849Y-71348165D01*
X98898304Y-70602049D01*
X98782746Y-70269332D01*
X98597975Y-69775524D01*
X98425000Y-69704665D01*
X98134337Y-69405035D01*
X98067253Y-68989172D01*
X97917438Y-68407846D01*
X97709507Y-68273679D01*
X97505433Y-67951932D01*
X97375903Y-67129275D01*
X97358016Y-66651895D01*
X98067253Y-66651895D01*
X98137818Y-67616105D01*
X98316491Y-68196961D01*
X98425000Y-68273679D01*
X98715663Y-68573309D01*
X98782746Y-68989172D01*
X98932561Y-69570498D01*
X99140493Y-69704665D01*
X99453346Y-69996308D01*
X99498239Y-70269332D01*
X99741629Y-70817236D01*
X100367419Y-71623508D01*
X100929225Y-72208891D01*
X101723031Y-73053714D01*
X102242647Y-73764259D01*
X102360211Y-74069473D01*
X102625315Y-74637229D01*
X103075704Y-75070862D01*
X103632482Y-75680545D01*
X103791197Y-76144102D01*
X104058612Y-76770707D01*
X104506690Y-77217341D01*
X105065479Y-77860218D01*
X105222183Y-78369557D01*
X105388453Y-78906556D01*
X105579930Y-79006074D01*
X105895374Y-79296653D01*
X105937676Y-79554618D01*
X106175922Y-80115166D01*
X106780901Y-80917398D01*
X107177864Y-81343351D01*
X108191146Y-82189447D01*
X109143323Y-82545702D01*
X109682089Y-82583538D01*
X110514422Y-82494473D01*
X110934023Y-82275208D01*
X110946127Y-82225792D01*
X111245757Y-81935129D01*
X111661620Y-81868046D01*
X112073773Y-81783348D01*
X112289252Y-81416583D01*
X112369011Y-80598745D01*
X112377113Y-79884179D01*
X112440830Y-78604165D01*
X112687927Y-77759199D01*
X113202315Y-77075785D01*
X113255218Y-77022207D01*
X114267530Y-76383172D01*
X115498310Y-76109845D01*
X116694832Y-76211381D01*
X117604371Y-76696938D01*
X117743310Y-76859595D01*
X118384496Y-77458487D01*
X119083799Y-77446122D01*
X119949510Y-76807030D01*
X120247535Y-76501848D01*
X121059573Y-75803691D01*
X121793045Y-75451036D01*
X122283402Y-75498731D01*
X122394014Y-75786355D01*
X122685496Y-76099607D01*
X122956187Y-76144102D01*
X123764347Y-76446804D01*
X124382787Y-77152824D01*
X124540493Y-77728408D01*
X124725981Y-78220661D01*
X124898239Y-78290581D01*
X125188902Y-78590211D01*
X125255986Y-79006074D01*
X125405801Y-79587400D01*
X125613732Y-79721567D01*
X125790897Y-80056283D01*
X125915394Y-80970099D01*
X125970286Y-82327512D01*
X125971479Y-82583538D01*
X125971479Y-85445510D01*
X128475704Y-85445510D01*
X129760311Y-85398241D01*
X130647962Y-85271549D01*
X130703094Y-85241084D01*
X133126408Y-85241084D01*
X133427161Y-85407407D01*
X133841901Y-85445510D01*
X134423228Y-85595325D01*
X134557394Y-85803257D01*
X134877565Y-86014675D01*
X135689442Y-86143078D01*
X136202595Y-86161003D01*
X137374117Y-86067582D01*
X138199132Y-85691283D01*
X138850352Y-85087764D01*
X139920679Y-84249579D01*
X140987042Y-84014524D01*
X142212055Y-83756709D01*
X142951939Y-83027189D01*
X143143310Y-82151448D01*
X143419482Y-81289815D01*
X143858803Y-80794806D01*
X144436390Y-79999942D01*
X144574296Y-79284844D01*
X144441104Y-78535289D01*
X143959398Y-78293629D01*
X143858803Y-78290581D01*
X143277477Y-78140766D01*
X143143310Y-77932834D01*
X142871074Y-77585484D01*
X142785563Y-77575088D01*
X142470820Y-77865959D01*
X142427817Y-78127969D01*
X142176124Y-78756393D01*
X141576826Y-79516806D01*
X140863594Y-80160050D01*
X140270099Y-80436967D01*
X140262257Y-80437060D01*
X139777998Y-80679058D01*
X139072606Y-81282387D01*
X138850352Y-81510299D01*
X138082703Y-82191853D01*
X137411398Y-82561575D01*
X137275835Y-82583538D01*
X136777500Y-82766244D01*
X136703873Y-82941285D01*
X136404243Y-83231948D01*
X135988380Y-83299031D01*
X135407054Y-83448846D01*
X135272887Y-83656778D01*
X134981405Y-83970030D01*
X134710714Y-84014524D01*
X134071294Y-84232215D01*
X133435153Y-84717515D01*
X133127352Y-85218762D01*
X133126408Y-85241084D01*
X130703094Y-85241084D01*
X130979928Y-85088111D01*
X130979930Y-85087764D01*
X131279560Y-84797101D01*
X131695422Y-84730017D01*
X132276749Y-84580202D01*
X132410915Y-84372271D01*
X132710546Y-84081608D01*
X133126408Y-84014524D01*
X133707735Y-83864709D01*
X133841901Y-83656778D01*
X134141532Y-83366115D01*
X134557394Y-83299031D01*
X135138721Y-83149216D01*
X135272887Y-82941285D01*
X135572517Y-82650622D01*
X135988380Y-82583538D01*
X136569706Y-82433723D01*
X136703873Y-82225792D01*
X136995981Y-81914097D01*
X137275835Y-81868046D01*
X137868647Y-81622267D01*
X138636990Y-81010681D01*
X138850352Y-80794806D01*
X139577446Y-80117592D01*
X140160150Y-79745937D01*
X140271549Y-79721567D01*
X140918568Y-79443733D01*
X141505035Y-78827652D01*
X141712324Y-78280792D01*
X141954537Y-77790368D01*
X142558337Y-77081362D01*
X142785563Y-76859595D01*
X143463055Y-76129942D01*
X143834590Y-75541646D01*
X143858803Y-75428609D01*
X144101243Y-74931686D01*
X144705539Y-74218874D01*
X144932042Y-73997623D01*
X145613596Y-73229974D01*
X145983318Y-72558669D01*
X146005282Y-72423106D01*
X146187987Y-71924771D01*
X146363028Y-71851144D01*
X146587050Y-71533769D01*
X146711652Y-70740927D01*
X146720775Y-70420158D01*
X146800118Y-69524071D01*
X146998329Y-69025662D01*
X147078521Y-68989172D01*
X147282595Y-68667425D01*
X147412125Y-67844768D01*
X147436268Y-67200440D01*
X147500617Y-66180070D01*
X147665148Y-65532419D01*
X147794014Y-65411707D01*
X147965431Y-65073991D01*
X148087709Y-64139138D01*
X148147798Y-62724594D01*
X148151761Y-62191989D01*
X148189285Y-60649233D01*
X148293157Y-59548734D01*
X148450329Y-59007936D01*
X148509507Y-58972271D01*
X148760692Y-58661400D01*
X148867226Y-57912384D01*
X148867253Y-57899031D01*
X148970877Y-57145475D01*
X149220549Y-56825874D01*
X149225000Y-56825792D01*
X149375829Y-56480038D01*
X149489144Y-55489283D01*
X149559806Y-53923284D01*
X149582746Y-51970661D01*
X149560636Y-49777507D01*
X149474555Y-48200805D01*
X149294883Y-47142339D01*
X148991998Y-46503894D01*
X148536276Y-46187254D01*
X147898097Y-46094203D01*
X147810153Y-46093398D01*
X147252204Y-46300266D01*
X146477662Y-46830467D01*
X145628914Y-47548394D01*
X144848345Y-48318438D01*
X144278341Y-49004992D01*
X144061290Y-49472449D01*
X144142411Y-49586525D01*
X144503353Y-50017153D01*
X144574296Y-50416168D01*
X144729921Y-50981109D01*
X144932042Y-51101848D01*
X145222705Y-51401478D01*
X145289789Y-51817341D01*
X145439604Y-52398668D01*
X145647535Y-52532834D01*
X145938198Y-52832464D01*
X146005282Y-53248327D01*
X146155097Y-53829653D01*
X146363028Y-53963820D01*
X146653691Y-54263450D01*
X146720775Y-54679313D01*
X146870590Y-55260639D01*
X147078521Y-55394806D01*
X147369184Y-55694436D01*
X147436268Y-56110299D01*
X147586083Y-56691625D01*
X147794014Y-56825792D01*
X148045199Y-57136662D01*
X148151733Y-57885679D01*
X148151761Y-57899031D01*
X148048137Y-58652588D01*
X147798465Y-58972188D01*
X147794014Y-58972271D01*
X147542829Y-58661400D01*
X147436295Y-57912384D01*
X147436268Y-57899031D01*
X147332644Y-57145475D01*
X147082972Y-56825874D01*
X147078521Y-56825792D01*
X146787858Y-56526162D01*
X146720775Y-56110299D01*
X146570960Y-55528973D01*
X146363028Y-55394806D01*
X146072365Y-55095176D01*
X146005282Y-54679313D01*
X145855467Y-54097987D01*
X145647535Y-53963820D01*
X145356872Y-53664190D01*
X145289789Y-53248327D01*
X145139974Y-52667001D01*
X144932042Y-52532834D01*
X144641379Y-52233204D01*
X144574296Y-51817341D01*
X144424481Y-51236015D01*
X144216549Y-51101848D01*
X143903297Y-50810366D01*
X143858803Y-50539675D01*
X143641112Y-49900255D01*
X143155812Y-49264114D01*
X142654565Y-48956313D01*
X142632243Y-48955369D01*
X142542216Y-49286476D01*
X142472418Y-50173376D01*
X142432984Y-51456443D01*
X142427817Y-52175088D01*
X142390293Y-53717844D01*
X142286420Y-54818343D01*
X142129249Y-55359141D01*
X142070070Y-55394806D01*
X141753953Y-55685104D01*
X141712324Y-55939203D01*
X141472674Y-56438915D01*
X140838683Y-57265361D01*
X139937787Y-58255706D01*
X139752495Y-58443428D01*
X138749702Y-59379653D01*
X137880755Y-60072490D01*
X137308492Y-60394505D01*
X137248270Y-60403257D01*
X136767222Y-60594024D01*
X136703873Y-60761003D01*
X136404243Y-61051666D01*
X135988380Y-61118750D01*
X135407054Y-61268565D01*
X135272887Y-61476496D01*
X134973257Y-61767159D01*
X134557394Y-61834243D01*
X133976068Y-61984058D01*
X133841901Y-62191989D01*
X133542271Y-62482652D01*
X133126408Y-62549736D01*
X132545082Y-62699551D01*
X132410915Y-62907482D01*
X132100045Y-63158668D01*
X131351028Y-63265201D01*
X131337676Y-63265229D01*
X130584120Y-63368852D01*
X130264519Y-63618524D01*
X130264437Y-63622975D01*
X129942689Y-63827049D01*
X129120033Y-63956579D01*
X128475704Y-63980722D01*
X127455334Y-64045071D01*
X126807683Y-64209602D01*
X126686972Y-64338468D01*
X126369597Y-64562490D01*
X125576755Y-64687092D01*
X125255986Y-64696215D01*
X124359899Y-64775558D01*
X123861489Y-64973769D01*
X123825000Y-65053961D01*
X123503253Y-65258035D01*
X122680596Y-65387565D01*
X122036268Y-65411707D01*
X121015897Y-65476057D01*
X120368247Y-65640588D01*
X120247535Y-65769454D01*
X119905454Y-65930872D01*
X118940160Y-66048996D01*
X117443077Y-66115515D01*
X116312324Y-66127200D01*
X114536730Y-66158299D01*
X113237366Y-66246053D01*
X112505654Y-66382151D01*
X112377113Y-66484947D01*
X112077482Y-66775610D01*
X111661620Y-66842693D01*
X111080293Y-66692878D01*
X110946127Y-66484947D01*
X110646497Y-66194284D01*
X110230634Y-66127200D01*
X109649308Y-65977385D01*
X109515141Y-65769454D01*
X109215511Y-65478791D01*
X108799648Y-65411707D01*
X108218322Y-65261892D01*
X108084155Y-65053961D01*
X107784525Y-64763298D01*
X107368662Y-64696215D01*
X106787336Y-64546399D01*
X106653169Y-64338468D01*
X106353539Y-64047805D01*
X105937676Y-63980722D01*
X105356350Y-63830906D01*
X105222183Y-63622975D01*
X104922553Y-63332312D01*
X104506690Y-63265229D01*
X103925364Y-63115414D01*
X103791197Y-62907482D01*
X103471304Y-62694789D01*
X102661321Y-62566659D01*
X102169413Y-62549736D01*
X101042900Y-62639503D01*
X100197785Y-63010594D01*
X99307441Y-63789923D01*
X98514636Y-64700117D01*
X98152147Y-65547879D01*
X98067253Y-66651895D01*
X97358016Y-66651895D01*
X97351761Y-66484947D01*
X97416110Y-65464577D01*
X97580641Y-64816926D01*
X97709507Y-64696215D01*
X98011321Y-64400380D01*
X98067253Y-64059697D01*
X98337172Y-63368041D01*
X98782746Y-62907482D01*
X99261025Y-62347164D01*
X99471145Y-61435428D01*
X99498239Y-60682027D01*
X99431094Y-59687859D01*
X99260168Y-59071249D01*
X99140493Y-58972271D01*
X98979075Y-58630190D01*
X98860951Y-57664896D01*
X98794432Y-56167813D01*
X98782746Y-55037060D01*
G37*
%TD*%
M02*
