M48
; DRILL file {KiCad (7.0.0)} date Tue Oct  3 20:22:16 2023
; FORMAT={-:-/ absolute / inch / decimal}
; #@! TF.CreationDate,2023-10-03T20:22:16+02:00
; #@! TF.GenerationSoftware,Kicad,Pcbnew,(7.0.0)
; #@! TF.FileFunction,Plated,1,2,PTH
FMAT,2
INCH
; #@! TA.AperFunction,Plated,PTH,ViaDrill
T1C0.0157
; #@! TA.AperFunction,Plated,PTH,ComponentDrill
T2C0.0236
; #@! TA.AperFunction,Plated,PTH,ComponentDrill
T3C0.0394
; #@! TA.AperFunction,Plated,PTH,ComponentDrill
T4C0.0600
; #@! TA.AperFunction,Plated,PTH,ComponentDrill
T5C0.1200
%
G90
G05
T1
X6.7699Y-1.5145
X6.9856Y-1.4558
X7.486Y-2.1254
X7.6735Y-2.1254
X7.6875Y-1.2812
X7.8125Y-1.2188
X7.8309Y-2.6433
X7.8495Y-2.4817
X7.875Y-1.2188
X7.875Y-2.0312
X7.8923Y-2.2504
X7.8948Y-2.6419
X7.8991Y-1.4089
X7.8997Y-1.5938
X7.933Y-0.9017
X7.9567Y-1.5938
X7.9612Y-0.9542
X7.9759Y-1.4089
X8.0434Y-2.0577
X8.0514Y-2.4663
X8.0525Y-2.642
X8.0625Y-1.0938
X8.0938Y-2.0312
X8.1009Y-1.75
X8.111Y-2.3917
X8.125Y-1.2812
X8.1875Y-1.4688
X8.236Y-2.0629
X8.2371Y-2.1208
X8.25Y-1.0938
X8.2906Y-2.3924
X8.3438Y-0.875
X8.4375Y-1.0938
X8.4859Y-2.2502
X8.5312Y-2.1238
X8.625Y-1.0938
X8.6875Y-2.2188
X8.7188Y-2.0
T3
X8.3369Y-2.9502
X8.3369Y-3.0502
X8.4369Y-2.9502
X8.4369Y-3.0502
X8.5369Y-2.9502
X8.5369Y-3.0502
X8.7188Y-1.7125
X8.7188Y-1.8125
X8.7188Y-1.9125
T4
X1.35Y-1.0875
X1.35Y-1.8375
X1.35Y-2.5875
X1.35Y-3.3375
X1.6Y-0.9875
X1.6Y-1.7375
X1.6Y-2.4875
X1.6Y-3.2375
X2.1Y-1.0875
X2.1Y-1.8375
X2.1Y-2.5875
X2.1Y-3.3375
X2.35Y-0.9875
X2.35Y-1.7375
X2.35Y-2.4875
X2.35Y-3.2375
X2.85Y-1.0875
X2.85Y-1.8375
X2.85Y-2.5875
X2.85Y-3.3375
X3.1Y-0.9875
X3.1Y-1.7375
X3.1Y-2.4875
X3.1Y-3.2375
X3.6Y-1.0875
X3.6Y-1.8375
X3.6Y-2.5875
X3.85Y-0.9875
X3.85Y-1.7375
X3.85Y-2.4875
X4.0687Y-3.3375
X4.3187Y-3.2375
X4.35Y-1.0875
X4.35Y-1.8375
X4.35Y-2.5875
X4.6Y-0.9875
X4.6Y-1.7375
X4.6Y-2.4875
X4.8187Y-3.3375
X5.0687Y-3.2375
X5.1Y-1.0875
X5.1Y-1.8375
X5.1Y-2.5875
X5.35Y-0.9875
X5.35Y-1.7375
X5.35Y-2.4875
X5.6625Y-3.3375
X5.85Y-1.0875
X5.85Y-1.8375
X5.85Y-2.5875
X5.9125Y-3.2375
X6.1Y-0.9875
X6.1Y-1.7375
X6.1Y-2.4875
X6.6Y-1.0875
X6.6Y-1.8375
X6.6Y-2.5875
X6.7875Y-3.3375
X6.85Y-0.9875
X6.85Y-1.7375
X6.85Y-2.4875
X7.0375Y-3.2375
X7.35Y-1.0875
X7.35Y-1.8375
X7.35Y-2.5875
X7.5375Y-3.3375
X7.6Y-0.9875
X7.6Y-1.7375
X7.6Y-2.4875
X7.7875Y-3.2375
X8.1937Y-1.8375
X8.1937Y-2.5875
X8.2438Y-1.3875
X8.2875Y-3.3375
X8.4437Y-1.7375
X8.4437Y-2.4875
X8.4938Y-1.2875
X8.5375Y-3.2375
T5
X3.0Y-3.7125
X3.75Y-3.7125
X4.6875Y-3.7125
X5.3438Y-3.7125
X6.2812Y-3.7125
X6.9375Y-3.7125
T2
G00X8.1737Y-0.8219
M15
G01X8.1737Y-0.8455
M16
G05
G00X8.1737Y-0.9766
M15
G01X8.1737Y-1.0199
M16
G05
G00X8.5138Y-0.8219
M15
G01X8.5138Y-0.8455
M16
G05
G00X8.5138Y-0.9766
M15
G01X8.5138Y-1.0199
M16
G05
T0
M30
