%TF.GenerationSoftware,KiCad,Pcbnew,(7.0.0)*%
%TF.CreationDate,2023-10-03T20:21:47+02:00*%
%TF.ProjectId,qorthoz,716f7274-686f-47a2-9e6b-696361645f70,rev?*%
%TF.SameCoordinates,Original*%
%TF.FileFunction,Soldermask,Bot*%
%TF.FilePolarity,Negative*%
%FSLAX46Y46*%
G04 Gerber Fmt 4.6, Leading zero omitted, Abs format (unit mm)*
G04 Created by KiCad (PCBNEW (7.0.0)) date 2023-10-03 20:21:47*
%MOMM*%
%LPD*%
G01*
G04 APERTURE LIST*
G04 Aperture macros list*
%AMRoundRect*
0 Rectangle with rounded corners*
0 $1 Rounding radius*
0 $2 $3 $4 $5 $6 $7 $8 $9 X,Y pos of 4 corners*
0 Add a 4 corners polygon primitive as box body*
4,1,4,$2,$3,$4,$5,$6,$7,$8,$9,$2,$3,0*
0 Add four circle primitives for the rounded corners*
1,1,$1+$1,$2,$3*
1,1,$1+$1,$4,$5*
1,1,$1+$1,$6,$7*
1,1,$1+$1,$8,$9*
0 Add four rect primitives between the rounded corners*
20,1,$1+$1,$2,$3,$4,$5,0*
20,1,$1+$1,$4,$5,$6,$7,0*
20,1,$1+$1,$6,$7,$8,$9,0*
20,1,$1+$1,$8,$9,$2,$3,0*%
G04 Aperture macros list end*
%ADD10C,1.750000*%
%ADD11C,3.987800*%
%ADD12C,2.300000*%
%ADD13C,4.000000*%
%ADD14RoundRect,0.150000X0.150000X-0.512500X0.150000X0.512500X-0.150000X0.512500X-0.150000X-0.512500X0*%
%ADD15C,0.650000*%
%ADD16R,0.600000X1.450000*%
%ADD17R,0.300000X1.450000*%
%ADD18O,1.000000X1.600000*%
%ADD19O,1.000000X2.100000*%
%ADD20R,1.700000X1.700000*%
%ADD21O,1.700000X1.700000*%
%ADD22RoundRect,0.250000X0.300000X-0.300000X0.300000X0.300000X-0.300000X0.300000X-0.300000X-0.300000X0*%
%ADD23RoundRect,0.225000X0.225000X0.250000X-0.225000X0.250000X-0.225000X-0.250000X0.225000X-0.250000X0*%
%ADD24RoundRect,0.150000X0.150000X-0.587500X0.150000X0.587500X-0.150000X0.587500X-0.150000X-0.587500X0*%
%ADD25RoundRect,0.225000X-0.225000X-0.250000X0.225000X-0.250000X0.225000X0.250000X-0.225000X0.250000X0*%
%ADD26R,1.100000X1.800000*%
%ADD27RoundRect,0.225000X-0.250000X0.225000X-0.250000X-0.225000X0.250000X-0.225000X0.250000X0.225000X0*%
%ADD28RoundRect,0.225000X0.375000X-0.225000X0.375000X0.225000X-0.375000X0.225000X-0.375000X-0.225000X0*%
%ADD29RoundRect,0.200000X0.275000X-0.200000X0.275000X0.200000X-0.275000X0.200000X-0.275000X-0.200000X0*%
%ADD30RoundRect,0.200000X-0.275000X0.200000X-0.275000X-0.200000X0.275000X-0.200000X0.275000X0.200000X0*%
%ADD31RoundRect,0.150000X0.625000X-0.150000X0.625000X0.150000X-0.625000X0.150000X-0.625000X-0.150000X0*%
%ADD32RoundRect,0.250000X0.650000X-0.350000X0.650000X0.350000X-0.650000X0.350000X-0.650000X-0.350000X0*%
%ADD33RoundRect,0.075000X0.075000X-0.662500X0.075000X0.662500X-0.075000X0.662500X-0.075000X-0.662500X0*%
%ADD34RoundRect,0.075000X0.662500X-0.075000X0.662500X0.075000X-0.662500X0.075000X-0.662500X-0.075000X0*%
%ADD35RoundRect,0.250000X-0.300000X0.300000X-0.300000X-0.300000X0.300000X-0.300000X0.300000X0.300000X0*%
%ADD36RoundRect,0.250000X-0.625000X0.375000X-0.625000X-0.375000X0.625000X-0.375000X0.625000X0.375000X0*%
G04 APERTURE END LIST*
D10*
%TO.C,MX20*%
X206851250Y-49212500D03*
D11*
X211931250Y-49212500D03*
D10*
X217011250Y-49212500D03*
D12*
X208121250Y-46672500D03*
X214471250Y-44132500D03*
%TD*%
D10*
%TO.C,MX36*%
X171132500Y-87312500D03*
D11*
X176212500Y-87312500D03*
D10*
X181292500Y-87312500D03*
D12*
X172402500Y-84772500D03*
X178752500Y-82232500D03*
%TD*%
D10*
%TO.C,MX37*%
X190182500Y-87312500D03*
D11*
X195262500Y-87312500D03*
D10*
X200342500Y-87312500D03*
D12*
X191452500Y-84772500D03*
X197802500Y-82232500D03*
%TD*%
D10*
%TO.C,MX18*%
X166370000Y-49212500D03*
D11*
X171450000Y-49212500D03*
D10*
X176530000Y-49212500D03*
D12*
X167640000Y-46672500D03*
X173990000Y-44132500D03*
%TD*%
D10*
%TO.C,MX35*%
X142557500Y-87312500D03*
D11*
X147637500Y-87312500D03*
D10*
X152717500Y-87312500D03*
D12*
X143827500Y-84772500D03*
X150177500Y-82232500D03*
%TD*%
D10*
%TO.C,MX1*%
X33020000Y-30162500D03*
D11*
X38100000Y-30162500D03*
D10*
X43180000Y-30162500D03*
D12*
X34290000Y-27622500D03*
X40640000Y-25082500D03*
%TD*%
D10*
%TO.C,MX34*%
X102076250Y-87312500D03*
D11*
X107156250Y-87312500D03*
D10*
X112236250Y-87312500D03*
D12*
X103346250Y-84772500D03*
X109696250Y-82232500D03*
%TD*%
D10*
%TO.C,MX28*%
X166370000Y-68262500D03*
D11*
X171450000Y-68262500D03*
D10*
X176530000Y-68262500D03*
D12*
X167640000Y-65722500D03*
X173990000Y-63182500D03*
%TD*%
D10*
%TO.C,MX9*%
X185420000Y-30162500D03*
D11*
X190500000Y-30162500D03*
D10*
X195580000Y-30162500D03*
D12*
X186690000Y-27622500D03*
X193040000Y-25082500D03*
%TD*%
D10*
%TO.C,MX6*%
X128270000Y-30162500D03*
D11*
X133350000Y-30162500D03*
D10*
X138430000Y-30162500D03*
D12*
X129540000Y-27622500D03*
X135890000Y-25082500D03*
%TD*%
D10*
%TO.C,MX24*%
X90170000Y-68262500D03*
D11*
X95250000Y-68262500D03*
D10*
X100330000Y-68262500D03*
D12*
X91440000Y-65722500D03*
X97790000Y-63182500D03*
%TD*%
D10*
%TO.C,MX15*%
X109220000Y-49212500D03*
D11*
X114300000Y-49212500D03*
D10*
X119380000Y-49212500D03*
D12*
X110490000Y-46672500D03*
X116840000Y-44132500D03*
%TD*%
D10*
%TO.C,MX17*%
X147320000Y-49212500D03*
D11*
X152400000Y-49212500D03*
D10*
X157480000Y-49212500D03*
D12*
X148590000Y-46672500D03*
X154940000Y-44132500D03*
%TD*%
D10*
%TO.C,MX16*%
X128270000Y-49212500D03*
D11*
X133350000Y-49212500D03*
D10*
X138430000Y-49212500D03*
D12*
X129540000Y-46672500D03*
X135890000Y-44132500D03*
%TD*%
D10*
%TO.C,MX19*%
X185420000Y-49212500D03*
D11*
X190500000Y-49212500D03*
D10*
X195580000Y-49212500D03*
D12*
X186690000Y-46672500D03*
X193040000Y-44132500D03*
%TD*%
D10*
%TO.C,MX25*%
X109220000Y-68262500D03*
D11*
X114300000Y-68262500D03*
D10*
X119380000Y-68262500D03*
D12*
X110490000Y-65722500D03*
X116840000Y-63182500D03*
%TD*%
D10*
%TO.C,MX21*%
X33020000Y-68262500D03*
D11*
X38100000Y-68262500D03*
D10*
X43180000Y-68262500D03*
D12*
X34290000Y-65722500D03*
X40640000Y-63182500D03*
%TD*%
D10*
%TO.C,MX22*%
X52070000Y-68262500D03*
D11*
X57150000Y-68262500D03*
D10*
X62230000Y-68262500D03*
D12*
X53340000Y-65722500D03*
X59690000Y-63182500D03*
%TD*%
D13*
%TO.C,S3*%
X176212500Y-94297500D03*
D11*
X176212500Y-79057500D03*
D13*
X76200000Y-94297500D03*
D11*
X76200000Y-79057500D03*
%TD*%
D10*
%TO.C,MX5*%
X109220000Y-30162500D03*
D11*
X114300000Y-30162500D03*
D10*
X119380000Y-30162500D03*
D12*
X110490000Y-27622500D03*
X116840000Y-25082500D03*
%TD*%
D10*
%TO.C,MX10*%
X217011250Y-30162500D03*
D11*
X211931250Y-30162500D03*
D10*
X206851250Y-30162500D03*
D12*
X215741250Y-32702500D03*
X209391250Y-35242500D03*
%TD*%
D10*
%TO.C,MX12*%
X52070000Y-49212500D03*
D11*
X57150000Y-49212500D03*
D10*
X62230000Y-49212500D03*
D12*
X53340000Y-46672500D03*
X59690000Y-44132500D03*
%TD*%
D10*
%TO.C,MX29*%
X185420000Y-68262500D03*
D11*
X190500000Y-68262500D03*
D10*
X195580000Y-68262500D03*
D12*
X186690000Y-65722500D03*
X193040000Y-63182500D03*
%TD*%
D10*
%TO.C,MX14*%
X90170000Y-49212500D03*
D11*
X95250000Y-49212500D03*
D10*
X100330000Y-49212500D03*
D12*
X91440000Y-46672500D03*
X97790000Y-44132500D03*
%TD*%
D10*
%TO.C,MX32*%
X52070000Y-87312500D03*
D11*
X57150000Y-87312500D03*
D10*
X62230000Y-87312500D03*
D12*
X53340000Y-84772500D03*
X59690000Y-82232500D03*
%TD*%
D10*
%TO.C,MX26*%
X128270000Y-68262500D03*
D11*
X133350000Y-68262500D03*
D10*
X138430000Y-68262500D03*
D12*
X129540000Y-65722500D03*
X135890000Y-63182500D03*
%TD*%
D10*
%TO.C,MX33*%
X71120000Y-87312500D03*
D11*
X76200000Y-87312500D03*
D10*
X81280000Y-87312500D03*
D12*
X72390000Y-84772500D03*
X78740000Y-82232500D03*
%TD*%
D10*
%TO.C,MX3*%
X71120000Y-30162500D03*
D11*
X76200000Y-30162500D03*
D10*
X81280000Y-30162500D03*
D12*
X72390000Y-27622500D03*
X78740000Y-25082500D03*
%TD*%
D10*
%TO.C,MX23*%
X71120000Y-68262500D03*
D11*
X76200000Y-68262500D03*
D10*
X81280000Y-68262500D03*
D12*
X72390000Y-65722500D03*
X78740000Y-63182500D03*
%TD*%
D10*
%TO.C,MX27*%
X147320000Y-68262500D03*
D11*
X152400000Y-68262500D03*
D10*
X157480000Y-68262500D03*
D12*
X148590000Y-65722500D03*
X154940000Y-63182500D03*
%TD*%
D10*
%TO.C,MX39*%
X121126250Y-87312500D03*
D11*
X126206250Y-87312500D03*
D10*
X131286250Y-87312500D03*
D12*
X122396250Y-84772500D03*
X128746250Y-82232500D03*
%TD*%
D10*
%TO.C,MX4*%
X90170000Y-30162500D03*
D11*
X95250000Y-30162500D03*
D10*
X100330000Y-30162500D03*
D12*
X91440000Y-27622500D03*
X97790000Y-25082500D03*
%TD*%
D13*
%TO.C,S2*%
X159543750Y-94297500D03*
D11*
X159543750Y-79057500D03*
D13*
X135731250Y-94297500D03*
D11*
X135731250Y-79057500D03*
%TD*%
D10*
%TO.C,MX8*%
X166370000Y-30162500D03*
D11*
X171450000Y-30162500D03*
D10*
X176530000Y-30162500D03*
D12*
X167640000Y-27622500D03*
X173990000Y-25082500D03*
%TD*%
D10*
%TO.C,MX13*%
X71120000Y-49212500D03*
D11*
X76200000Y-49212500D03*
D10*
X81280000Y-49212500D03*
D12*
X72390000Y-46672500D03*
X78740000Y-44132500D03*
%TD*%
D10*
%TO.C,MX31*%
X33020000Y-87312500D03*
D11*
X38100000Y-87312500D03*
D10*
X43180000Y-87312500D03*
D12*
X34290000Y-84772500D03*
X40640000Y-82232500D03*
%TD*%
D10*
%TO.C,MX38*%
X209232500Y-87312500D03*
D11*
X214312500Y-87312500D03*
D10*
X219392500Y-87312500D03*
D12*
X210502500Y-84772500D03*
X216852500Y-82232500D03*
%TD*%
D10*
%TO.C,MX7*%
X147320000Y-30162500D03*
D11*
X152400000Y-30162500D03*
D10*
X157480000Y-30162500D03*
D12*
X148590000Y-27622500D03*
X154940000Y-25082500D03*
%TD*%
D10*
%TO.C,MX2*%
X52070000Y-30162500D03*
D11*
X57150000Y-30162500D03*
D10*
X62230000Y-30162500D03*
D12*
X53340000Y-27622500D03*
X59690000Y-25082500D03*
%TD*%
D10*
%TO.C,MX11*%
X33020000Y-49212500D03*
D11*
X38100000Y-49212500D03*
D10*
X43180000Y-49212500D03*
D12*
X34290000Y-46672500D03*
X40640000Y-44132500D03*
%TD*%
D10*
%TO.C,MX30*%
X206851250Y-68262500D03*
D11*
X211931250Y-68262500D03*
D10*
X217011250Y-68262500D03*
D12*
X208121250Y-65722500D03*
X214471250Y-63182500D03*
%TD*%
D13*
%TO.C,S1*%
X119062500Y-94297500D03*
D11*
X119062500Y-79057500D03*
D13*
X95250000Y-94297500D03*
D11*
X95250000Y-79057500D03*
%TD*%
D14*
%TO.C,U1*%
X202562500Y-32093750D03*
X201612500Y-32093750D03*
X200662500Y-32093750D03*
X200662500Y-29818750D03*
X201612500Y-29818750D03*
X202562500Y-29818750D03*
%TD*%
D15*
%TO.C,J1*%
X209041250Y-24825000D03*
X214821250Y-24825000D03*
D16*
X208681249Y-26269999D03*
X209481249Y-26269999D03*
D17*
X210681249Y-26269999D03*
X211681249Y-26269999D03*
X212181249Y-26269999D03*
X213181249Y-26269999D03*
D16*
X214381249Y-26269999D03*
X215181249Y-26269999D03*
X215181249Y-26269999D03*
X214381249Y-26269999D03*
D17*
X213681249Y-26269999D03*
X212681249Y-26269999D03*
X211181249Y-26269999D03*
X210181249Y-26269999D03*
D16*
X209481249Y-26269999D03*
X208681249Y-26269999D03*
D18*
X207611249Y-21174999D03*
D19*
X207611249Y-25354999D03*
D18*
X216251249Y-21174999D03*
D19*
X216251249Y-25354999D03*
%TD*%
D20*
%TO.C,J4*%
X216837499Y-77474999D03*
D21*
X216837499Y-74934999D03*
X214297499Y-77474999D03*
X214297499Y-74934999D03*
X211757499Y-77474999D03*
X211757499Y-74934999D03*
%TD*%
D22*
%TO.C,D30*%
X215106250Y-69662500D03*
X215106250Y-66862500D03*
%TD*%
D23*
%TO.C,C6*%
X193301431Y-53984079D03*
X191751431Y-53984079D03*
%TD*%
D22*
%TO.C,D26*%
X136525000Y-69662500D03*
X136525000Y-66862500D03*
%TD*%
%TO.C,D34*%
X110331250Y-88712500D03*
X110331250Y-85912500D03*
%TD*%
%TO.C,D21*%
X41275000Y-69662500D03*
X41275000Y-66862500D03*
%TD*%
%TO.C,D15*%
X117475000Y-50612500D03*
X117475000Y-47812500D03*
%TD*%
D24*
%TO.C,U3*%
X205756250Y-42212500D03*
X203856250Y-42212500D03*
X204806250Y-40337500D03*
%TD*%
D25*
%TO.C,C8*%
X207626431Y-60749257D03*
X209176431Y-60749257D03*
%TD*%
D22*
%TO.C,D12*%
X60325000Y-50612500D03*
X60325000Y-47812500D03*
%TD*%
%TO.C,D27*%
X155575000Y-69662500D03*
X155575000Y-66862500D03*
%TD*%
%TO.C,D35*%
X150812500Y-88712500D03*
X150812500Y-85912500D03*
%TD*%
D20*
%TO.C,J2*%
X221456249Y-43497499D03*
D21*
X221456249Y-46037499D03*
X221456249Y-48577499D03*
%TD*%
D22*
%TO.C,D3*%
X79375000Y-31562500D03*
X79375000Y-28762500D03*
%TD*%
%TO.C,D29*%
X193675000Y-69662500D03*
X193675000Y-66862500D03*
%TD*%
D26*
%TO.C,SW1*%
X222512499Y-59456249D03*
X222512499Y-53256249D03*
X218812499Y-59456249D03*
X218812499Y-53256249D03*
%TD*%
D23*
%TO.C,C1*%
X206356250Y-37306250D03*
X204806250Y-37306250D03*
%TD*%
D22*
%TO.C,D28*%
X174625000Y-69662500D03*
X174625000Y-66862500D03*
%TD*%
%TO.C,D23*%
X79375000Y-69662500D03*
X79375000Y-66862500D03*
%TD*%
%TO.C,D16*%
X136525000Y-50612500D03*
X136525000Y-47812500D03*
%TD*%
%TO.C,D8*%
X174625000Y-31562500D03*
X174625000Y-28762500D03*
%TD*%
D23*
%TO.C,C2*%
X204787500Y-44450000D03*
X203237500Y-44450000D03*
%TD*%
D25*
%TO.C,C9*%
X203237500Y-50006250D03*
X204787500Y-50006250D03*
%TD*%
D22*
%TO.C,D11*%
X41275000Y-50612500D03*
X41275000Y-47812500D03*
%TD*%
D27*
%TO.C,C10*%
X200536431Y-64302829D03*
X200536431Y-65852829D03*
%TD*%
D28*
%TO.C,D_PWR1*%
X198437500Y-35781250D03*
X198437500Y-32481250D03*
%TD*%
D22*
%TO.C,D33*%
X79375000Y-88712500D03*
X79375000Y-85912500D03*
%TD*%
D27*
%TO.C,C7*%
X204521075Y-64303146D03*
X204521075Y-65853146D03*
%TD*%
D22*
%TO.C,D13*%
X79375000Y-50612500D03*
X79375000Y-47812500D03*
%TD*%
%TO.C,D20*%
X215106250Y-50612500D03*
X215106250Y-47812500D03*
%TD*%
D25*
%TO.C,C4*%
X203237500Y-48418750D03*
X204787500Y-48418750D03*
%TD*%
D22*
%TO.C,D37*%
X198437500Y-88712500D03*
X198437500Y-85912500D03*
%TD*%
%TO.C,D25*%
X117475000Y-69662500D03*
X117475000Y-66862500D03*
%TD*%
D29*
%TO.C,R3*%
X216693750Y-57150000D03*
X216693750Y-55500000D03*
%TD*%
D30*
%TO.C,R2*%
X219075000Y-24575000D03*
X219075000Y-26225000D03*
%TD*%
D22*
%TO.C,D31*%
X41275000Y-88712500D03*
X41275000Y-85912500D03*
%TD*%
%TO.C,D1*%
X41275000Y-31562500D03*
X41275000Y-28762500D03*
%TD*%
%TO.C,D38*%
X217487500Y-88712500D03*
X217487500Y-85912500D03*
%TD*%
%TO.C,D5*%
X117475000Y-31562500D03*
X117475000Y-28762500D03*
%TD*%
D30*
%TO.C,R1*%
X204787500Y-24575000D03*
X204787500Y-26225000D03*
%TD*%
D22*
%TO.C,D18*%
X174625000Y-50612500D03*
X174625000Y-47812500D03*
%TD*%
%TO.C,D22*%
X60325000Y-69662500D03*
X60325000Y-66862500D03*
%TD*%
%TO.C,D17*%
X155575000Y-50612500D03*
X155575000Y-47812500D03*
%TD*%
D27*
%TO.C,C5*%
X198948931Y-64302829D03*
X198948931Y-65852829D03*
%TD*%
D25*
%TO.C,C3*%
X203237500Y-46037500D03*
X204787500Y-46037500D03*
%TD*%
D31*
%TO.C,J3*%
X175831250Y-39975000D03*
X175831250Y-38975000D03*
X175831250Y-37975000D03*
X175831250Y-36975000D03*
D32*
X171956250Y-41275000D03*
X171956250Y-35675000D03*
%TD*%
D22*
%TO.C,D19*%
X193675000Y-50612500D03*
X193675000Y-47812500D03*
%TD*%
%TO.C,D14*%
X98425000Y-50612500D03*
X98425000Y-47812500D03*
%TD*%
D33*
%TO.C,U2*%
X203376431Y-61515329D03*
X202876431Y-61515329D03*
X202376431Y-61515329D03*
X201876431Y-61515329D03*
X201376431Y-61515329D03*
X200876431Y-61515329D03*
X200376431Y-61515329D03*
X199876431Y-61515329D03*
X199376431Y-61515329D03*
X198876431Y-61515329D03*
X198376431Y-61515329D03*
X197876431Y-61515329D03*
D34*
X196463931Y-60102829D03*
X196463931Y-59602829D03*
X196463931Y-59102829D03*
X196463931Y-58602829D03*
X196463931Y-58102829D03*
X196463931Y-57602829D03*
X196463931Y-57102829D03*
X196463931Y-56602829D03*
X196463931Y-56102829D03*
X196463931Y-55602829D03*
X196463931Y-55102829D03*
X196463931Y-54602829D03*
D33*
X197876431Y-53190329D03*
X198376431Y-53190329D03*
X198876431Y-53190329D03*
X199376431Y-53190329D03*
X199876431Y-53190329D03*
X200376431Y-53190329D03*
X200876431Y-53190329D03*
X201376431Y-53190329D03*
X201876431Y-53190329D03*
X202376431Y-53190329D03*
X202876431Y-53190329D03*
X203376431Y-53190329D03*
D34*
X204788931Y-54602829D03*
X204788931Y-55102829D03*
X204788931Y-55602829D03*
X204788931Y-56102829D03*
X204788931Y-56602829D03*
X204788931Y-57102829D03*
X204788931Y-57602829D03*
X204788931Y-58102829D03*
X204788931Y-58602829D03*
X204788931Y-59102829D03*
X204788931Y-59602829D03*
X204788931Y-60102829D03*
%TD*%
D35*
%TO.C,D10*%
X207168750Y-32731250D03*
X207168750Y-35531250D03*
%TD*%
D22*
%TO.C,D9*%
X193675000Y-31562500D03*
X193675000Y-28762500D03*
%TD*%
%TO.C,D7*%
X155575000Y-31562500D03*
X155575000Y-28762500D03*
%TD*%
%TO.C,D36*%
X179387500Y-88712500D03*
X179387500Y-85912500D03*
%TD*%
%TO.C,D32*%
X60325000Y-88712500D03*
X60325000Y-85912500D03*
%TD*%
D36*
%TO.C,F1*%
X204787500Y-32731250D03*
X204787500Y-35531250D03*
%TD*%
D22*
%TO.C,D2*%
X60325000Y-31562500D03*
X60325000Y-28762500D03*
%TD*%
%TO.C,D4*%
X98425000Y-31562500D03*
X98425000Y-28762500D03*
%TD*%
%TO.C,D6*%
X136525000Y-31562500D03*
X136525000Y-28762500D03*
%TD*%
%TO.C,D24*%
X98425000Y-69662500D03*
X98425000Y-66862500D03*
%TD*%
M02*
