M48
; DRILL file {KiCad (7.0.0)} date Tue Oct  3 20:21:48 2023
; FORMAT={-:-/ absolute / inch / decimal}
; #@! TF.CreationDate,2023-10-03T20:21:48+02:00
; #@! TF.GenerationSoftware,Kicad,Pcbnew,(7.0.0)
; #@! TF.FileFunction,NonPlated,1,2,NPTH
FMAT,2
INCH
; #@! TA.AperFunction,NonPlated,NPTH,ComponentDrill
T1C0.0256
; #@! TA.AperFunction,NonPlated,NPTH,ComponentDrill
T2C0.0689
; #@! TA.AperFunction,NonPlated,NPTH,ComponentDrill
T3C0.1570
%
G90
G05
T1
X8.23Y-0.9774
X8.4575Y-0.9774
T2
X1.3Y-1.1875
X1.3Y-1.9375
X1.3Y-2.6875
X1.3Y-3.4375
X1.7Y-1.1875
X1.7Y-1.9375
X1.7Y-2.6875
X1.7Y-3.4375
X2.05Y-1.1875
X2.05Y-1.9375
X2.05Y-2.6875
X2.05Y-3.4375
X2.45Y-1.1875
X2.45Y-1.9375
X2.45Y-2.6875
X2.45Y-3.4375
X2.8Y-1.1875
X2.8Y-1.9375
X2.8Y-2.6875
X2.8Y-3.4375
X3.2Y-1.1875
X3.2Y-1.9375
X3.2Y-2.6875
X3.2Y-3.4375
X3.55Y-1.1875
X3.55Y-1.9375
X3.55Y-2.6875
X3.95Y-1.1875
X3.95Y-1.9375
X3.95Y-2.6875
X4.0187Y-3.4375
X4.3Y-1.1875
X4.3Y-1.9375
X4.3Y-2.6875
X4.4188Y-3.4375
X4.7Y-1.1875
X4.7Y-1.9375
X4.7Y-2.6875
X4.7687Y-3.4375
X5.05Y-1.1875
X5.05Y-1.9375
X5.05Y-2.6875
X5.1688Y-3.4375
X5.45Y-1.1875
X5.45Y-1.9375
X5.45Y-2.6875
X5.6125Y-3.4375
X5.8Y-1.1875
X5.8Y-1.9375
X5.8Y-2.6875
X6.0125Y-3.4375
X6.2Y-1.1875
X6.2Y-1.9375
X6.2Y-2.6875
X6.55Y-1.1875
X6.55Y-1.9375
X6.55Y-2.6875
X6.7375Y-3.4375
X6.95Y-1.1875
X6.95Y-1.9375
X6.95Y-2.6875
X7.1375Y-3.4375
X7.3Y-1.1875
X7.3Y-1.9375
X7.3Y-2.6875
X7.4875Y-3.4375
X7.7Y-1.1875
X7.7Y-1.9375
X7.7Y-2.6875
X7.8875Y-3.4375
X8.1437Y-1.1875
X8.1437Y-1.9375
X8.1437Y-2.6875
X8.2375Y-3.4375
X8.5437Y-1.1875
X8.5437Y-1.9375
X8.5437Y-2.6875
X8.6375Y-3.4375
T3
X1.5Y-1.1875
X1.5Y-1.9375
X1.5Y-2.6875
X1.5Y-3.4375
X2.25Y-1.1875
X2.25Y-1.9375
X2.25Y-2.6875
X2.25Y-3.4375
X3.0Y-1.1875
X3.0Y-1.9375
X3.0Y-2.6875
X3.0Y-3.1125
X3.0Y-3.4375
X3.75Y-1.1875
X3.75Y-1.9375
X3.75Y-2.6875
X3.75Y-3.1125
X4.2188Y-3.4375
X4.5Y-1.1875
X4.5Y-1.9375
X4.5Y-2.6875
X4.6875Y-3.1125
X4.9688Y-3.4375
X5.25Y-1.1875
X5.25Y-1.9375
X5.25Y-2.6875
X5.3438Y-3.1125
X5.8125Y-3.4375
X6.0Y-1.1875
X6.0Y-1.9375
X6.0Y-2.6875
X6.2812Y-3.1125
X6.75Y-1.1875
X6.75Y-1.9375
X6.75Y-2.6875
X6.9375Y-3.1125
X6.9375Y-3.4375
X7.5Y-1.1875
X7.5Y-1.9375
X7.5Y-2.6875
X7.6875Y-3.4375
X8.3438Y-1.1875
X8.3438Y-1.9375
X8.3438Y-2.6875
X8.4375Y-3.4375
T0
M30
