%TF.GenerationSoftware,KiCad,Pcbnew,(7.0.0)*%
%TF.CreationDate,2023-10-03T20:21:48+02:00*%
%TF.ProjectId,qorthoz,716f7274-686f-47a2-9e6b-696361645f70,rev?*%
%TF.SameCoordinates,Original*%
%TF.FileFunction,Other,Comment*%
%FSLAX46Y46*%
G04 Gerber Fmt 4.6, Leading zero omitted, Abs format (unit mm)*
G04 Created by KiCad (PCBNEW (7.0.0)) date 2023-10-03 20:21:48*
%MOMM*%
%LPD*%
G01*
G04 APERTURE LIST*
%ADD10C,0.030000*%
G04 APERTURE END LIST*
D10*
%TO.C,SW1*%
X220935976Y-55054344D02*
X220735976Y-55054344D01*
X220935976Y-54940059D02*
X220821690Y-55025773D01*
X220735976Y-54940059D02*
X220850261Y-55054344D01*
X220831214Y-54854344D02*
X220831214Y-54787678D01*
X220935976Y-54759106D02*
X220935976Y-54854344D01*
X220935976Y-54854344D02*
X220735976Y-54854344D01*
X220735976Y-54854344D02*
X220735976Y-54759106D01*
X220831214Y-54673392D02*
X220831214Y-54606726D01*
X220935976Y-54578154D02*
X220935976Y-54673392D01*
X220935976Y-54673392D02*
X220735976Y-54673392D01*
X220735976Y-54673392D02*
X220735976Y-54578154D01*
X220935976Y-54492440D02*
X220735976Y-54492440D01*
X220735976Y-54492440D02*
X220735976Y-54416250D01*
X220735976Y-54416250D02*
X220745500Y-54397202D01*
X220745500Y-54397202D02*
X220755023Y-54387679D01*
X220755023Y-54387679D02*
X220774071Y-54378155D01*
X220774071Y-54378155D02*
X220802642Y-54378155D01*
X220802642Y-54378155D02*
X220821690Y-54387679D01*
X220821690Y-54387679D02*
X220831214Y-54397202D01*
X220831214Y-54397202D02*
X220840738Y-54416250D01*
X220840738Y-54416250D02*
X220840738Y-54492440D01*
X220859785Y-54292440D02*
X220859785Y-54140060D01*
X220735976Y-54006726D02*
X220735976Y-53968631D01*
X220735976Y-53968631D02*
X220745500Y-53949583D01*
X220745500Y-53949583D02*
X220764547Y-53930536D01*
X220764547Y-53930536D02*
X220802642Y-53921012D01*
X220802642Y-53921012D02*
X220869309Y-53921012D01*
X220869309Y-53921012D02*
X220907404Y-53930536D01*
X220907404Y-53930536D02*
X220926452Y-53949583D01*
X220926452Y-53949583D02*
X220935976Y-53968631D01*
X220935976Y-53968631D02*
X220935976Y-54006726D01*
X220935976Y-54006726D02*
X220926452Y-54025774D01*
X220926452Y-54025774D02*
X220907404Y-54044821D01*
X220907404Y-54044821D02*
X220869309Y-54054345D01*
X220869309Y-54054345D02*
X220802642Y-54054345D01*
X220802642Y-54054345D02*
X220764547Y-54044821D01*
X220764547Y-54044821D02*
X220745500Y-54025774D01*
X220745500Y-54025774D02*
X220735976Y-54006726D01*
X220735976Y-53835297D02*
X220897880Y-53835297D01*
X220897880Y-53835297D02*
X220916928Y-53825774D01*
X220916928Y-53825774D02*
X220926452Y-53816250D01*
X220926452Y-53816250D02*
X220935976Y-53797202D01*
X220935976Y-53797202D02*
X220935976Y-53759107D01*
X220935976Y-53759107D02*
X220926452Y-53740059D01*
X220926452Y-53740059D02*
X220916928Y-53730536D01*
X220916928Y-53730536D02*
X220897880Y-53721012D01*
X220897880Y-53721012D02*
X220735976Y-53721012D01*
X220735976Y-53654345D02*
X220735976Y-53540059D01*
X220935976Y-53597202D02*
X220735976Y-53597202D01*
X220735976Y-53372440D02*
X220735976Y-53239107D01*
X220735976Y-53239107D02*
X220935976Y-53372440D01*
X220935976Y-53372440D02*
X220935976Y-53239107D01*
X220735976Y-53124821D02*
X220735976Y-53086726D01*
X220735976Y-53086726D02*
X220745500Y-53067678D01*
X220745500Y-53067678D02*
X220764547Y-53048631D01*
X220764547Y-53048631D02*
X220802642Y-53039107D01*
X220802642Y-53039107D02*
X220869309Y-53039107D01*
X220869309Y-53039107D02*
X220907404Y-53048631D01*
X220907404Y-53048631D02*
X220926452Y-53067678D01*
X220926452Y-53067678D02*
X220935976Y-53086726D01*
X220935976Y-53086726D02*
X220935976Y-53124821D01*
X220935976Y-53124821D02*
X220926452Y-53143869D01*
X220926452Y-53143869D02*
X220907404Y-53162916D01*
X220907404Y-53162916D02*
X220869309Y-53172440D01*
X220869309Y-53172440D02*
X220802642Y-53172440D01*
X220802642Y-53172440D02*
X220764547Y-53162916D01*
X220764547Y-53162916D02*
X220745500Y-53143869D01*
X220745500Y-53143869D02*
X220735976Y-53124821D01*
X220935976Y-52953392D02*
X220735976Y-52953392D01*
X220735976Y-52953392D02*
X220935976Y-52839107D01*
X220935976Y-52839107D02*
X220735976Y-52839107D01*
X220831214Y-52743868D02*
X220831214Y-52677202D01*
X220935976Y-52648630D02*
X220935976Y-52743868D01*
X220935976Y-52743868D02*
X220735976Y-52743868D01*
X220735976Y-52743868D02*
X220735976Y-52648630D01*
X220935976Y-60054344D02*
X220735976Y-60054344D01*
X220935976Y-59940059D02*
X220821690Y-60025773D01*
X220735976Y-59940059D02*
X220850261Y-60054344D01*
X220831214Y-59854344D02*
X220831214Y-59787678D01*
X220935976Y-59759106D02*
X220935976Y-59854344D01*
X220935976Y-59854344D02*
X220735976Y-59854344D01*
X220735976Y-59854344D02*
X220735976Y-59759106D01*
X220831214Y-59673392D02*
X220831214Y-59606726D01*
X220935976Y-59578154D02*
X220935976Y-59673392D01*
X220935976Y-59673392D02*
X220735976Y-59673392D01*
X220735976Y-59673392D02*
X220735976Y-59578154D01*
X220935976Y-59492440D02*
X220735976Y-59492440D01*
X220735976Y-59492440D02*
X220735976Y-59416250D01*
X220735976Y-59416250D02*
X220745500Y-59397202D01*
X220745500Y-59397202D02*
X220755023Y-59387679D01*
X220755023Y-59387679D02*
X220774071Y-59378155D01*
X220774071Y-59378155D02*
X220802642Y-59378155D01*
X220802642Y-59378155D02*
X220821690Y-59387679D01*
X220821690Y-59387679D02*
X220831214Y-59397202D01*
X220831214Y-59397202D02*
X220840738Y-59416250D01*
X220840738Y-59416250D02*
X220840738Y-59492440D01*
X220859785Y-59292440D02*
X220859785Y-59140060D01*
X220735976Y-59006726D02*
X220735976Y-58968631D01*
X220735976Y-58968631D02*
X220745500Y-58949583D01*
X220745500Y-58949583D02*
X220764547Y-58930536D01*
X220764547Y-58930536D02*
X220802642Y-58921012D01*
X220802642Y-58921012D02*
X220869309Y-58921012D01*
X220869309Y-58921012D02*
X220907404Y-58930536D01*
X220907404Y-58930536D02*
X220926452Y-58949583D01*
X220926452Y-58949583D02*
X220935976Y-58968631D01*
X220935976Y-58968631D02*
X220935976Y-59006726D01*
X220935976Y-59006726D02*
X220926452Y-59025774D01*
X220926452Y-59025774D02*
X220907404Y-59044821D01*
X220907404Y-59044821D02*
X220869309Y-59054345D01*
X220869309Y-59054345D02*
X220802642Y-59054345D01*
X220802642Y-59054345D02*
X220764547Y-59044821D01*
X220764547Y-59044821D02*
X220745500Y-59025774D01*
X220745500Y-59025774D02*
X220735976Y-59006726D01*
X220735976Y-58835297D02*
X220897880Y-58835297D01*
X220897880Y-58835297D02*
X220916928Y-58825774D01*
X220916928Y-58825774D02*
X220926452Y-58816250D01*
X220926452Y-58816250D02*
X220935976Y-58797202D01*
X220935976Y-58797202D02*
X220935976Y-58759107D01*
X220935976Y-58759107D02*
X220926452Y-58740059D01*
X220926452Y-58740059D02*
X220916928Y-58730536D01*
X220916928Y-58730536D02*
X220897880Y-58721012D01*
X220897880Y-58721012D02*
X220735976Y-58721012D01*
X220735976Y-58654345D02*
X220735976Y-58540059D01*
X220935976Y-58597202D02*
X220735976Y-58597202D01*
X220735976Y-58372440D02*
X220735976Y-58239107D01*
X220735976Y-58239107D02*
X220935976Y-58372440D01*
X220935976Y-58372440D02*
X220935976Y-58239107D01*
X220735976Y-58124821D02*
X220735976Y-58086726D01*
X220735976Y-58086726D02*
X220745500Y-58067678D01*
X220745500Y-58067678D02*
X220764547Y-58048631D01*
X220764547Y-58048631D02*
X220802642Y-58039107D01*
X220802642Y-58039107D02*
X220869309Y-58039107D01*
X220869309Y-58039107D02*
X220907404Y-58048631D01*
X220907404Y-58048631D02*
X220926452Y-58067678D01*
X220926452Y-58067678D02*
X220935976Y-58086726D01*
X220935976Y-58086726D02*
X220935976Y-58124821D01*
X220935976Y-58124821D02*
X220926452Y-58143869D01*
X220926452Y-58143869D02*
X220907404Y-58162916D01*
X220907404Y-58162916D02*
X220869309Y-58172440D01*
X220869309Y-58172440D02*
X220802642Y-58172440D01*
X220802642Y-58172440D02*
X220764547Y-58162916D01*
X220764547Y-58162916D02*
X220745500Y-58143869D01*
X220745500Y-58143869D02*
X220735976Y-58124821D01*
X220935976Y-57953392D02*
X220735976Y-57953392D01*
X220735976Y-57953392D02*
X220935976Y-57839107D01*
X220935976Y-57839107D02*
X220735976Y-57839107D01*
X220831214Y-57743868D02*
X220831214Y-57677202D01*
X220935976Y-57648630D02*
X220935976Y-57743868D01*
X220935976Y-57743868D02*
X220735976Y-57743868D01*
X220735976Y-57743868D02*
X220735976Y-57648630D01*
X220535976Y-59904821D02*
X220335976Y-59904821D01*
X220335976Y-59904821D02*
X220535976Y-59790536D01*
X220535976Y-59790536D02*
X220335976Y-59790536D01*
X220535976Y-59666726D02*
X220526452Y-59685774D01*
X220526452Y-59685774D02*
X220516928Y-59695297D01*
X220516928Y-59695297D02*
X220497880Y-59704821D01*
X220497880Y-59704821D02*
X220440738Y-59704821D01*
X220440738Y-59704821D02*
X220421690Y-59695297D01*
X220421690Y-59695297D02*
X220412166Y-59685774D01*
X220412166Y-59685774D02*
X220402642Y-59666726D01*
X220402642Y-59666726D02*
X220402642Y-59638155D01*
X220402642Y-59638155D02*
X220412166Y-59619107D01*
X220412166Y-59619107D02*
X220421690Y-59609583D01*
X220421690Y-59609583D02*
X220440738Y-59600059D01*
X220440738Y-59600059D02*
X220497880Y-59600059D01*
X220497880Y-59600059D02*
X220516928Y-59609583D01*
X220516928Y-59609583D02*
X220526452Y-59619107D01*
X220526452Y-59619107D02*
X220535976Y-59638155D01*
X220535976Y-59638155D02*
X220535976Y-59666726D01*
X220431214Y-59327679D02*
X220431214Y-59394345D01*
X220535976Y-59394345D02*
X220335976Y-59394345D01*
X220335976Y-59394345D02*
X220335976Y-59299107D01*
X220516928Y-59222916D02*
X220526452Y-59213393D01*
X220526452Y-59213393D02*
X220535976Y-59222916D01*
X220535976Y-59222916D02*
X220526452Y-59232440D01*
X220526452Y-59232440D02*
X220516928Y-59222916D01*
X220516928Y-59222916D02*
X220535976Y-59222916D01*
X220516928Y-59013393D02*
X220526452Y-59022917D01*
X220526452Y-59022917D02*
X220535976Y-59051488D01*
X220535976Y-59051488D02*
X220535976Y-59070536D01*
X220535976Y-59070536D02*
X220526452Y-59099107D01*
X220526452Y-59099107D02*
X220507404Y-59118155D01*
X220507404Y-59118155D02*
X220488357Y-59127678D01*
X220488357Y-59127678D02*
X220450261Y-59137202D01*
X220450261Y-59137202D02*
X220421690Y-59137202D01*
X220421690Y-59137202D02*
X220383595Y-59127678D01*
X220383595Y-59127678D02*
X220364547Y-59118155D01*
X220364547Y-59118155D02*
X220345500Y-59099107D01*
X220345500Y-59099107D02*
X220335976Y-59070536D01*
X220335976Y-59070536D02*
X220335976Y-59051488D01*
X220335976Y-59051488D02*
X220345500Y-59022917D01*
X220345500Y-59022917D02*
X220355023Y-59013393D01*
X220402642Y-58841964D02*
X220535976Y-58841964D01*
X220402642Y-58927678D02*
X220507404Y-58927678D01*
X220507404Y-58927678D02*
X220526452Y-58918155D01*
X220526452Y-58918155D02*
X220535976Y-58899107D01*
X220535976Y-58899107D02*
X220535976Y-58870536D01*
X220535976Y-58870536D02*
X220526452Y-58851488D01*
X220526452Y-58851488D02*
X220516928Y-58841964D01*
X220402642Y-58655298D02*
X220402642Y-58579107D01*
X220335976Y-58626726D02*
X220507404Y-58626726D01*
X220507404Y-58626726D02*
X220526452Y-58617203D01*
X220526452Y-58617203D02*
X220535976Y-58598155D01*
X220535976Y-58598155D02*
X220535976Y-58579107D01*
X220535976Y-58512440D02*
X220402642Y-58512440D01*
X220440738Y-58512440D02*
X220421690Y-58502917D01*
X220421690Y-58502917D02*
X220412166Y-58493393D01*
X220412166Y-58493393D02*
X220402642Y-58474345D01*
X220402642Y-58474345D02*
X220402642Y-58455298D01*
X220535976Y-58302916D02*
X220431214Y-58302916D01*
X220431214Y-58302916D02*
X220412166Y-58312440D01*
X220412166Y-58312440D02*
X220402642Y-58331488D01*
X220402642Y-58331488D02*
X220402642Y-58369583D01*
X220402642Y-58369583D02*
X220412166Y-58388630D01*
X220526452Y-58302916D02*
X220535976Y-58321964D01*
X220535976Y-58321964D02*
X220535976Y-58369583D01*
X220535976Y-58369583D02*
X220526452Y-58388630D01*
X220526452Y-58388630D02*
X220507404Y-58398154D01*
X220507404Y-58398154D02*
X220488357Y-58398154D01*
X220488357Y-58398154D02*
X220469309Y-58388630D01*
X220469309Y-58388630D02*
X220459785Y-58369583D01*
X220459785Y-58369583D02*
X220459785Y-58321964D01*
X220459785Y-58321964D02*
X220450261Y-58302916D01*
X220526452Y-58121964D02*
X220535976Y-58141012D01*
X220535976Y-58141012D02*
X220535976Y-58179107D01*
X220535976Y-58179107D02*
X220526452Y-58198155D01*
X220526452Y-58198155D02*
X220516928Y-58207678D01*
X220516928Y-58207678D02*
X220497880Y-58217202D01*
X220497880Y-58217202D02*
X220440738Y-58217202D01*
X220440738Y-58217202D02*
X220421690Y-58207678D01*
X220421690Y-58207678D02*
X220412166Y-58198155D01*
X220412166Y-58198155D02*
X220402642Y-58179107D01*
X220402642Y-58179107D02*
X220402642Y-58141012D01*
X220402642Y-58141012D02*
X220412166Y-58121964D01*
X220535976Y-58036249D02*
X220335976Y-58036249D01*
X220459785Y-58017202D02*
X220535976Y-57960059D01*
X220402642Y-57960059D02*
X220478833Y-58036249D01*
X220526452Y-57883868D02*
X220535976Y-57864821D01*
X220535976Y-57864821D02*
X220535976Y-57826725D01*
X220535976Y-57826725D02*
X220526452Y-57807678D01*
X220526452Y-57807678D02*
X220507404Y-57798154D01*
X220507404Y-57798154D02*
X220497880Y-57798154D01*
X220497880Y-57798154D02*
X220478833Y-57807678D01*
X220478833Y-57807678D02*
X220469309Y-57826725D01*
X220469309Y-57826725D02*
X220469309Y-57855297D01*
X220469309Y-57855297D02*
X220459785Y-57874344D01*
X220459785Y-57874344D02*
X220440738Y-57883868D01*
X220440738Y-57883868D02*
X220431214Y-57883868D01*
X220431214Y-57883868D02*
X220412166Y-57874344D01*
X220412166Y-57874344D02*
X220402642Y-57855297D01*
X220402642Y-57855297D02*
X220402642Y-57826725D01*
X220402642Y-57826725D02*
X220412166Y-57807678D01*
X220535976Y-54904821D02*
X220335976Y-54904821D01*
X220335976Y-54904821D02*
X220535976Y-54790536D01*
X220535976Y-54790536D02*
X220335976Y-54790536D01*
X220535976Y-54666726D02*
X220526452Y-54685774D01*
X220526452Y-54685774D02*
X220516928Y-54695297D01*
X220516928Y-54695297D02*
X220497880Y-54704821D01*
X220497880Y-54704821D02*
X220440738Y-54704821D01*
X220440738Y-54704821D02*
X220421690Y-54695297D01*
X220421690Y-54695297D02*
X220412166Y-54685774D01*
X220412166Y-54685774D02*
X220402642Y-54666726D01*
X220402642Y-54666726D02*
X220402642Y-54638155D01*
X220402642Y-54638155D02*
X220412166Y-54619107D01*
X220412166Y-54619107D02*
X220421690Y-54609583D01*
X220421690Y-54609583D02*
X220440738Y-54600059D01*
X220440738Y-54600059D02*
X220497880Y-54600059D01*
X220497880Y-54600059D02*
X220516928Y-54609583D01*
X220516928Y-54609583D02*
X220526452Y-54619107D01*
X220526452Y-54619107D02*
X220535976Y-54638155D01*
X220535976Y-54638155D02*
X220535976Y-54666726D01*
X220431214Y-54327679D02*
X220431214Y-54394345D01*
X220535976Y-54394345D02*
X220335976Y-54394345D01*
X220335976Y-54394345D02*
X220335976Y-54299107D01*
X220516928Y-54222916D02*
X220526452Y-54213393D01*
X220526452Y-54213393D02*
X220535976Y-54222916D01*
X220535976Y-54222916D02*
X220526452Y-54232440D01*
X220526452Y-54232440D02*
X220516928Y-54222916D01*
X220516928Y-54222916D02*
X220535976Y-54222916D01*
X220516928Y-54013393D02*
X220526452Y-54022917D01*
X220526452Y-54022917D02*
X220535976Y-54051488D01*
X220535976Y-54051488D02*
X220535976Y-54070536D01*
X220535976Y-54070536D02*
X220526452Y-54099107D01*
X220526452Y-54099107D02*
X220507404Y-54118155D01*
X220507404Y-54118155D02*
X220488357Y-54127678D01*
X220488357Y-54127678D02*
X220450261Y-54137202D01*
X220450261Y-54137202D02*
X220421690Y-54137202D01*
X220421690Y-54137202D02*
X220383595Y-54127678D01*
X220383595Y-54127678D02*
X220364547Y-54118155D01*
X220364547Y-54118155D02*
X220345500Y-54099107D01*
X220345500Y-54099107D02*
X220335976Y-54070536D01*
X220335976Y-54070536D02*
X220335976Y-54051488D01*
X220335976Y-54051488D02*
X220345500Y-54022917D01*
X220345500Y-54022917D02*
X220355023Y-54013393D01*
X220402642Y-53841964D02*
X220535976Y-53841964D01*
X220402642Y-53927678D02*
X220507404Y-53927678D01*
X220507404Y-53927678D02*
X220526452Y-53918155D01*
X220526452Y-53918155D02*
X220535976Y-53899107D01*
X220535976Y-53899107D02*
X220535976Y-53870536D01*
X220535976Y-53870536D02*
X220526452Y-53851488D01*
X220526452Y-53851488D02*
X220516928Y-53841964D01*
X220402642Y-53655298D02*
X220402642Y-53579107D01*
X220335976Y-53626726D02*
X220507404Y-53626726D01*
X220507404Y-53626726D02*
X220526452Y-53617203D01*
X220526452Y-53617203D02*
X220535976Y-53598155D01*
X220535976Y-53598155D02*
X220535976Y-53579107D01*
X220535976Y-53512440D02*
X220402642Y-53512440D01*
X220440738Y-53512440D02*
X220421690Y-53502917D01*
X220421690Y-53502917D02*
X220412166Y-53493393D01*
X220412166Y-53493393D02*
X220402642Y-53474345D01*
X220402642Y-53474345D02*
X220402642Y-53455298D01*
X220535976Y-53302916D02*
X220431214Y-53302916D01*
X220431214Y-53302916D02*
X220412166Y-53312440D01*
X220412166Y-53312440D02*
X220402642Y-53331488D01*
X220402642Y-53331488D02*
X220402642Y-53369583D01*
X220402642Y-53369583D02*
X220412166Y-53388630D01*
X220526452Y-53302916D02*
X220535976Y-53321964D01*
X220535976Y-53321964D02*
X220535976Y-53369583D01*
X220535976Y-53369583D02*
X220526452Y-53388630D01*
X220526452Y-53388630D02*
X220507404Y-53398154D01*
X220507404Y-53398154D02*
X220488357Y-53398154D01*
X220488357Y-53398154D02*
X220469309Y-53388630D01*
X220469309Y-53388630D02*
X220459785Y-53369583D01*
X220459785Y-53369583D02*
X220459785Y-53321964D01*
X220459785Y-53321964D02*
X220450261Y-53302916D01*
X220526452Y-53121964D02*
X220535976Y-53141012D01*
X220535976Y-53141012D02*
X220535976Y-53179107D01*
X220535976Y-53179107D02*
X220526452Y-53198155D01*
X220526452Y-53198155D02*
X220516928Y-53207678D01*
X220516928Y-53207678D02*
X220497880Y-53217202D01*
X220497880Y-53217202D02*
X220440738Y-53217202D01*
X220440738Y-53217202D02*
X220421690Y-53207678D01*
X220421690Y-53207678D02*
X220412166Y-53198155D01*
X220412166Y-53198155D02*
X220402642Y-53179107D01*
X220402642Y-53179107D02*
X220402642Y-53141012D01*
X220402642Y-53141012D02*
X220412166Y-53121964D01*
X220535976Y-53036249D02*
X220335976Y-53036249D01*
X220459785Y-53017202D02*
X220535976Y-52960059D01*
X220402642Y-52960059D02*
X220478833Y-53036249D01*
X220526452Y-52883868D02*
X220535976Y-52864821D01*
X220535976Y-52864821D02*
X220535976Y-52826725D01*
X220535976Y-52826725D02*
X220526452Y-52807678D01*
X220526452Y-52807678D02*
X220507404Y-52798154D01*
X220507404Y-52798154D02*
X220497880Y-52798154D01*
X220497880Y-52798154D02*
X220478833Y-52807678D01*
X220478833Y-52807678D02*
X220469309Y-52826725D01*
X220469309Y-52826725D02*
X220469309Y-52855297D01*
X220469309Y-52855297D02*
X220459785Y-52874344D01*
X220459785Y-52874344D02*
X220440738Y-52883868D01*
X220440738Y-52883868D02*
X220431214Y-52883868D01*
X220431214Y-52883868D02*
X220412166Y-52874344D01*
X220412166Y-52874344D02*
X220402642Y-52855297D01*
X220402642Y-52855297D02*
X220402642Y-52826725D01*
X220402642Y-52826725D02*
X220412166Y-52807678D01*
%TD*%
M02*
